# MagicaVoxel @ Ephtracy

# group
o 

# material
mtllib sity_3.vox.mtl
usemtl palette

# normals
vn -1 0 0
vn 1 0 0
vn 0 0 1
vn 0 0 -1
vn 0 -1 0
vn 0 1 0

# texcoords
vt 0.310547 0.5
vt 0.404297 0.5
vt 0.982422 0.5
vt 0.986328 0.5
vt 0.994141 0.5

# verts
v -7.6 0.3 9
v -7.6 0.3 -9
v -7.6 0.5 9
v -7.6 0.5 -9
v -7.5 0 9
v -7.5 0 -9
v -7.5 0.3 9
v -7.5 0.3 -9
v -6.2 3.3 9
v -6.2 3.3 -9
v -6.2 3.5 9
v -6.2 3.5 -9
v -6.1 0.5 7
v -6.1 0.5 6.8
v -6.1 0.5 3.6
v -6.1 0.5 3.4
v -6.1 0.5 0.3
v -6.1 0.5 0.1
v -6.1 0.5 -3.2
v -6.1 0.5 -3.4
v -6.1 0.5 -6.7
v -6.1 0.5 -6.9
v -6.1 3.3 7
v -6.1 3.3 6.8
v -6.1 3.3 3.6
v -6.1 3.3 3.4
v -6.1 3.3 0.3
v -6.1 3.3 0.1
v -6.1 3.3 -3.2
v -6.1 3.3 -3.4
v -6.1 3.3 -6.7
v -6.1 3.3 -6.9
v -4.5 0.5 9
v -4.5 0.5 -9
v -4.5 3.3 9
v -4.5 3.3 -9
v -4.5 3.5 9
v -4.5 3.5 -9
v -4.5 9.5 9
v -4.5 9.5 -9
v -4.4 9.5 -8.9
v -4.4 9.5 -9
v -4.4 10 -8.9
v -4.4 10 -9
v -4.2 0.5 -4.9
v -4.2 0.5 -8.9
v -4.2 10 -4.9
v -4.2 10 -8.9
v -3.7 0.5 1.7
v -3.7 0.5 -4.8
v -3.7 10 1.7
v -3.7 10 -4.8
v -3.6 0.5 7.9
v -3.6 0.5 3.4
v -3.6 6.9 7.9
v -3.6 6.9 3.4
v -3.6 7 7.9
v -3.6 7 3.4
v 2.3 0.5 -2.6
v 2.3 0.5 -7
v 2.3 7.1 -2.6
v 2.3 7.1 -7
v 2.5 0.5 7.8
v 2.5 0.5 -0.5
v 2.5 10 7.8
v 2.5 10 -0.5
v -5.9 0.5 7
v -5.9 0.5 6.8
v -5.9 0.5 3.6
v -5.9 0.5 3.4
v -5.9 0.5 0.3
v -5.9 0.5 0.1
v -5.9 0.5 -3.2
v -5.9 0.5 -3.4
v -5.9 0.5 -6.7
v -5.9 0.5 -6.9
v -5.9 3.3 7
v -5.9 3.3 6.8
v -5.9 3.3 3.6
v -5.9 3.3 3.4
v -5.9 3.3 0.3
v -5.9 3.3 0.1
v -5.9 3.3 -3.2
v -5.9 3.3 -3.4
v -5.9 3.3 -6.7
v -5.9 3.3 -6.9
v -4.4 0.5 7.9
v -4.4 0.5 -8.9
v -4.4 7 7.9
v -4.4 7.1 9
v -4.4 7.1 7.9
v -4.4 9.5 9
v -4.4 9.5 -8.9
v 0.9 0.5 1.7
v 0.9 0.5 -4.8
v 0.9 0.5 -4.9
v 0.9 0.5 -9
v 0.9 10 1.7
v 0.9 10 -4.8
v 0.9 10 -4.9
v 0.9 10 -9
v 1 0.5 9
v 1 0.5 8.9
v 1 0.5 3.4
v 1 6.9 7.9
v 1 6.9 3.4
v 1 7 8.9
v 1 7 7.9
v 1 7 3.4
v 1 7.1 9
v 1 7.1 7.9
v 6.4 0.5 7.8
v 6.4 0.5 -0.5
v 6.4 0.5 -2.6
v 6.4 0.5 -7
v 6.4 7.1 -2.6
v 6.4 7.1 -7
v 6.4 10 7.8
v 6.4 10 -0.5
v 7.5 0 9
v 7.5 0 -9
v 7.5 0.5 9
v 7.5 0.5 -9
v -7.6 0.3 9
v -7.6 0.5 9
v -7.5 0 9
v -7.5 0.3 9
v -7.3 0.4 9
v -7.3 0.5 9
v -7 0.4 9
v -7 0.5 9
v -6.2 3.3 9
v -6.2 3.5 9
v -4.5 0.5 9
v -4.5 3.3 9
v -4.5 3.5 9
v -4.5 9.5 9
v -4.4 0 9
v -4.4 0.5 9
v -4.4 7.1 9
v -4.4 9.5 9
v 1 0.5 9
v 1 7.1 9
v 7.5 0 9
v 7.5 0.5 9
v 2.5 0.5 7.8
v 2.5 10 7.8
v 6.4 0.5 7.8
v 6.4 10 7.8
v -6.1 0.5 7
v -6.1 3.3 7
v -5.9 0.5 7
v -5.9 3.3 7
v -6.1 0.5 3.6
v -6.1 3.3 3.6
v -5.9 0.5 3.6
v -5.9 3.3 3.6
v -3.7 0.5 1.7
v -3.7 10 1.7
v 0.9 0.5 1.7
v 0.9 10 1.7
v -6.1 0.5 0.3
v -6.1 3.3 0.3
v -5.9 0.5 0.3
v -5.9 3.3 0.3
v 2.3 0.5 -2.6
v 2.3 7.1 -2.6
v 6.4 0.5 -2.6
v 6.4 7.1 -2.6
v -6.1 0.5 -3.2
v -6.1 3.3 -3.2
v -5.9 0.5 -3.2
v -5.9 3.3 -3.2
v -4.2 0.5 -4.9
v -4.2 10 -4.9
v 0.9 0.5 -4.9
v 0.9 10 -4.9
v -6.1 0.5 -6.7
v -6.1 3.3 -6.7
v -5.9 0.5 -6.7
v -5.9 3.3 -6.7
v -4.4 0.5 -8.9
v -4.4 9.5 -8.9
v -4.4 10 -8.9
v -4.2 0.5 -8.9
v -4.2 10 -8.9
v -4.4 0.5 7.9
v -4.4 7 7.9
v -4.4 7.1 7.9
v -3.6 0.5 7.9
v -3.6 6.9 7.9
v -3.6 7 7.9
v 1 7 7.9
v 1 7.1 7.9
v -6.1 0.5 6.8
v -6.1 3.3 6.8
v -5.9 0.5 6.8
v -5.9 3.3 6.8
v -6.1 0.5 3.4
v -6.1 3.3 3.4
v -5.9 0.5 3.4
v -5.9 3.3 3.4
v -3.6 0.5 3.4
v -3.6 6.9 3.4
v -3.6 7 3.4
v 1 0.5 3.4
v 1 6.9 3.4
v 1 7 3.4
v -6.1 0.5 0.1
v -6.1 3.3 0.1
v -5.9 0.5 0.1
v -5.9 3.3 0.1
v 2.5 0.5 -0.5
v 2.5 10 -0.5
v 6.4 0.5 -0.5
v 6.4 10 -0.5
v -6.1 0.5 -3.4
v -6.1 3.3 -3.4
v -5.9 0.5 -3.4
v -5.9 3.3 -3.4
v -3.7 0.5 -4.8
v -3.7 10 -4.8
v 0.9 0.5 -4.8
v 0.9 10 -4.8
v -6.1 0.5 -6.9
v -6.1 3.3 -6.9
v -5.9 0.5 -6.9
v -5.9 3.3 -6.9
v 2.3 0.5 -7
v 2.3 7.1 -7
v 6.4 0.5 -7
v 6.4 7.1 -7
v -7.6 0.3 -9
v -7.6 0.5 -9
v -7.5 0 -9
v -7.5 0.3 -9
v -7.3 0.4 -9
v -7.3 0.5 -9
v -7 0.4 -9
v -7 0.5 -9
v -6.2 3.3 -9
v -6.2 3.5 -9
v -4.5 0 -9
v -4.5 0.5 -9
v -4.5 3.3 -9
v -4.5 3.5 -9
v -4.5 9.5 -9
v -4.4 9.5 -9
v -4.4 10 -9
v 0.9 0.5 -9
v 0.9 10 -9
v 7.5 0 -9
v 7.5 0.5 -9
v -7.5 0 9
v -4.4 0 9
v 7.5 0 9
v -7.4 0 8.9
v -4.4 0 8.9
v 7.4 0 8.9
v -7.4 0 -8.9
v -4.5 0 -8.9
v 7.4 0 -8.9
v -7.5 0 -9
v -4.5 0 -9
v 7.5 0 -9
v -7.6 0.3 9
v -7.5 0.3 9
v -7.6 0.3 -9
v -7.5 0.3 -9
v -6.2 3.3 9
v -4.5 3.3 9
v -6.1 3.3 7
v -5.9 3.3 7
v -6.1 3.3 6.8
v -5.9 3.3 6.8
v -6.1 3.3 3.6
v -5.9 3.3 3.6
v -6.1 3.3 3.4
v -5.9 3.3 3.4
v -6.1 3.3 0.3
v -5.9 3.3 0.3
v -6.1 3.3 0.1
v -5.9 3.3 0.1
v -6.1 3.3 -3.2
v -5.9 3.3 -3.2
v -6.1 3.3 -3.4
v -5.9 3.3 -3.4
v -6.1 3.3 -6.7
v -5.9 3.3 -6.7
v -6.1 3.3 -6.9
v -5.9 3.3 -6.9
v -6.2 3.3 -9
v -4.5 3.3 -9
v -7.6 0.5 9
v -7.3 0.5 9
v -7 0.5 9
v -4.5 0.5 9
v 1 0.5 9
v 7.5 0.5 9
v 1 0.5 8.9
v -4.4 0.5 7.9
v -3.6 0.5 7.9
v 2.5 0.5 7.8
v 6.4 0.5 7.8
v -6.1 0.5 7
v -5.9 0.5 7
v -6.1 0.5 6.8
v -5.9 0.5 6.8
v -6.1 0.5 3.6
v -5.9 0.5 3.6
v -6.1 0.5 3.4
v -5.9 0.5 3.4
v -3.6 0.5 3.4
v 1 0.5 3.4
v -3.7 0.5 1.7
v 0.9 0.5 1.7
v -6.1 0.5 0.3
v -5.9 0.5 0.3
v -6.1 0.5 0.1
v -5.9 0.5 0.1
v 2.5 0.5 -0.5
v 6.4 0.5 -0.5
v 2.3 0.5 -2.6
v 6.4 0.5 -2.6
v -6.1 0.5 -3.2
v -5.9 0.5 -3.2
v -6.1 0.5 -3.4
v -5.9 0.5 -3.4
v -3.7 0.5 -4.8
v 0.9 0.5 -4.8
v -4.2 0.5 -4.9
v 0.9 0.5 -4.9
v -6.1 0.5 -6.7
v -5.9 0.5 -6.7
v -6.1 0.5 -6.9
v -5.9 0.5 -6.9
v 2.3 0.5 -7
v 6.4 0.5 -7
v -4.4 0.5 -8.9
v -4.2 0.5 -8.9
v -7.6 0.5 -9
v -7.3 0.5 -9
v -7 0.5 -9
v -4.5 0.5 -9
v 0.9 0.5 -9
v 7.5 0.5 -9
v -6.2 3.5 9
v -4.5 3.5 9
v -6.2 3.5 -9
v -4.5 3.5 -9
v -3.6 7 7.9
v 1 7 7.9
v -3.6 7 3.4
v 1 7 3.4
v -4.4 7.1 9
v 1 7.1 9
v -4.4 7.1 7.9
v 1 7.1 7.9
v 2.3 7.1 -2.6
v 6.4 7.1 -2.6
v 2.3 7.1 -7
v 6.4 7.1 -7
v -4.5 9.5 9
v -4.4 9.5 9
v -4.4 9.5 -8.9
v -4.5 9.5 -9
v -4.4 9.5 -9
v 2.5 10 7.8
v 6.4 10 7.8
v -3.7 10 1.7
v 0.9 10 1.7
v 2.5 10 -0.5
v 6.4 10 -0.5
v -3.7 10 -4.8
v 0.9 10 -4.8
v -4.2 10 -4.9
v 0.9 10 -4.9
v -4.4 10 -8.9
v -4.2 10 -8.9
v -4.4 10 -9
v 0.9 10 -9

# faces
f 3/5/1 2/5/1 1/5/1
f 4/5/1 2/5/1 3/5/1
f 7/5/1 6/5/1 5/5/1
f 8/5/1 6/5/1 7/5/1
f 11/1/1 10/1/1 9/1/1
f 12/1/1 10/1/1 11/1/1
f 23/1/1 14/1/1 13/1/1
f 24/1/1 14/1/1 23/1/1
f 25/1/1 16/1/1 15/1/1
f 26/1/1 16/1/1 25/1/1
f 27/1/1 18/1/1 17/1/1
f 28/1/1 18/1/1 27/1/1
f 29/1/1 20/1/1 19/1/1
f 30/1/1 20/1/1 29/1/1
f 31/1/1 22/1/1 21/1/1
f 32/1/1 22/1/1 31/1/1
f 35/3/1 34/3/1 33/3/1
f 36/3/1 34/3/1 35/3/1
f 39/3/1 38/3/1 37/3/1
f 40/3/1 38/3/1 39/3/1
f 43/3/1 42/3/1 41/3/1
f 44/3/1 42/3/1 43/3/1
f 47/3/1 46/3/1 45/3/1
f 48/3/1 46/3/1 47/3/1
f 51/4/1 50/4/1 49/4/1
f 52/4/1 50/4/1 51/4/1
f 55/4/1 54/4/1 53/4/1
f 56/4/1 54/4/1 55/4/1
f 57/3/1 56/3/1 55/3/1
f 58/3/1 56/3/1 57/3/1
f 61/4/1 60/4/1 59/4/1
f 62/4/1 60/4/1 61/4/1
f 65/4/1 64/4/1 63/4/1
f 66/4/1 64/4/1 65/4/1
f 67/1/2 68/1/2 77/1/2
f 77/1/2 68/1/2 78/1/2
f 69/1/2 70/1/2 79/1/2
f 79/1/2 70/1/2 80/1/2
f 71/1/2 72/1/2 81/1/2
f 81/1/2 72/1/2 82/1/2
f 73/1/2 74/1/2 83/1/2
f 83/1/2 74/1/2 84/1/2
f 75/1/2 76/1/2 85/1/2
f 85/1/2 76/1/2 86/1/2
f 87/3/2 88/3/2 89/3/2
f 89/3/2 88/3/2 91/3/2
f 90/3/2 91/3/2 92/3/2
f 91/3/2 88/3/2 93/3/2
f 92/3/2 91/3/2 93/3/2
f 94/4/2 95/4/2 98/4/2
f 98/4/2 95/4/2 99/4/2
f 96/3/2 97/3/2 100/3/2
f 100/3/2 97/3/2 101/3/2
f 103/4/2 104/4/2 105/4/2
f 105/4/2 104/4/2 106/4/2
f 102/3/2 103/3/2 107/3/2
f 103/4/2 105/4/2 107/4/2
f 105/3/2 106/3/2 108/3/2
f 107/4/2 105/4/2 108/4/2
f 108/3/2 106/3/2 109/3/2
f 102/3/2 107/3/2 110/3/2
f 107/3/2 108/3/2 110/3/2
f 110/3/2 108/3/2 111/3/2
f 114/4/2 115/4/2 116/4/2
f 116/4/2 115/4/2 117/4/2
f 112/4/2 113/4/2 118/4/2
f 118/4/2 113/4/2 119/4/2
f 120/3/2 121/3/2 122/3/2
f 122/3/2 121/3/2 123/3/2
f 127/5/3 125/5/3 124/5/3
f 128/5/3 125/5/3 127/5/3
f 128/5/3 127/5/3 126/5/3
f 129/5/3 125/5/3 128/5/3
f 130/5/3 128/5/3 126/5/3
f 130/2/3 129/2/3 128/2/3
f 131/2/3 129/2/3 130/2/3
f 134/5/3 131/5/3 130/5/3
f 135/1/3 133/1/3 132/1/3
f 136/1/3 133/1/3 135/1/3
f 138/5/3 134/5/3 130/5/3
f 138/5/3 130/5/3 126/5/3
f 139/3/3 137/3/3 136/3/3
f 139/5/3 134/5/3 138/5/3
f 139/3/3 136/3/3 135/3/3
f 139/3/3 135/3/3 134/3/3
f 140/3/3 137/3/3 139/3/3
f 141/3/3 137/3/3 140/3/3
f 142/3/3 139/3/3 138/3/3
f 142/3/3 140/3/3 139/3/3
f 143/3/3 140/3/3 142/3/3
f 144/3/3 142/3/3 138/3/3
f 145/3/3 142/3/3 144/3/3
f 148/4/3 147/4/3 146/4/3
f 149/4/3 147/4/3 148/4/3
f 152/1/3 151/1/3 150/1/3
f 153/1/3 151/1/3 152/1/3
f 156/1/3 155/1/3 154/1/3
f 157/1/3 155/1/3 156/1/3
f 160/4/3 159/4/3 158/4/3
f 161/4/3 159/4/3 160/4/3
f 164/1/3 163/1/3 162/1/3
f 165/1/3 163/1/3 164/1/3
f 168/4/3 167/4/3 166/4/3
f 169/4/3 167/4/3 168/4/3
f 172/1/3 171/1/3 170/1/3
f 173/1/3 171/1/3 172/1/3
f 176/3/3 175/3/3 174/3/3
f 177/3/3 175/3/3 176/3/3
f 180/1/3 179/1/3 178/1/3
f 181/1/3 179/1/3 180/1/3
f 185/3/3 183/3/3 182/3/3
f 185/3/3 184/3/3 183/3/3
f 186/3/3 184/3/3 185/3/3
f 187/4/4 188/4/4 190/4/4
f 190/4/4 188/4/4 191/4/4
f 188/3/4 189/3/4 192/3/4
f 191/4/4 188/4/4 192/4/4
f 192/3/4 189/3/4 193/3/4
f 193/3/4 189/3/4 194/3/4
f 195/1/4 196/1/4 197/1/4
f 197/1/4 196/1/4 198/1/4
f 199/1/4 200/1/4 201/1/4
f 201/1/4 200/1/4 202/1/4
f 203/4/4 204/4/4 206/4/4
f 204/3/4 205/3/4 207/3/4
f 206/4/4 204/4/4 207/4/4
f 207/3/4 205/3/4 208/3/4
f 209/1/4 210/1/4 211/1/4
f 211/1/4 210/1/4 212/1/4
f 213/4/4 214/4/4 215/4/4
f 215/4/4 214/4/4 216/4/4
f 217/1/4 218/1/4 219/1/4
f 219/1/4 218/1/4 220/1/4
f 221/4/4 222/4/4 223/4/4
f 223/4/4 222/4/4 224/4/4
f 225/1/4 226/1/4 227/1/4
f 227/1/4 226/1/4 228/1/4
f 229/4/4 230/4/4 231/4/4
f 231/4/4 230/4/4 232/4/4
f 233/5/4 234/5/4 236/5/4
f 236/5/4 234/5/4 237/5/4
f 235/5/4 236/5/4 237/5/4
f 237/5/4 234/5/4 238/5/4
f 235/5/4 237/5/4 239/5/4
f 237/2/4 238/2/4 239/2/4
f 239/2/4 238/2/4 240/2/4
f 239/5/4 240/5/4 243/5/4
f 235/5/4 239/5/4 243/5/4
f 243/5/4 240/5/4 244/5/4
f 241/1/4 242/1/4 245/1/4
f 245/1/4 242/1/4 246/1/4
f 243/3/4 244/3/4 248/3/4
f 246/3/4 247/3/4 248/3/4
f 245/3/4 246/3/4 248/3/4
f 244/3/4 245/3/4 248/3/4
f 243/3/4 248/3/4 250/3/4
f 248/3/4 249/3/4 250/3/4
f 250/3/4 249/3/4 251/3/4
f 243/3/4 250/3/4 252/3/4
f 252/3/4 250/3/4 253/3/4
f 257/5/5 255/5/5 254/5/5
f 258/3/5 256/3/5 255/3/5
f 258/5/5 255/5/5 257/5/5
f 259/3/5 256/3/5 258/3/5
f 260/5/5 257/5/5 254/5/5
f 260/4/5 258/4/5 257/4/5
f 260/4/5 259/4/5 258/4/5
f 261/4/5 259/4/5 260/4/5
f 262/3/5 256/3/5 259/3/5
f 262/4/5 259/4/5 261/4/5
f 263/5/5 261/5/5 260/5/5
f 263/5/5 260/5/5 254/5/5
f 264/3/5 262/3/5 261/3/5
f 264/5/5 261/5/5 263/5/5
f 265/3/5 256/3/5 262/3/5
f 265/3/5 262/3/5 264/3/5
f 268/5/5 267/5/5 266/5/5
f 269/5/5 267/5/5 268/5/5
f 272/1/5 271/1/5 270/1/5
f 273/1/5 271/1/5 272/1/5
f 274/1/5 272/1/5 270/1/5
f 275/1/5 271/1/5 273/1/5
f 276/1/5 274/1/5 270/1/5
f 276/1/5 275/1/5 274/1/5
f 277/1/5 271/1/5 275/1/5
f 277/1/5 275/1/5 276/1/5
f 278/1/5 276/1/5 270/1/5
f 279/1/5 271/1/5 277/1/5
f 280/1/5 278/1/5 270/1/5
f 280/1/5 279/1/5 278/1/5
f 281/1/5 271/1/5 279/1/5
f 281/1/5 279/1/5 280/1/5
f 282/1/5 280/1/5 270/1/5
f 283/1/5 271/1/5 281/1/5
f 284/1/5 282/1/5 270/1/5
f 284/1/5 283/1/5 282/1/5
f 285/1/5 271/1/5 283/1/5
f 285/1/5 283/1/5 284/1/5
f 286/1/5 284/1/5 270/1/5
f 287/1/5 271/1/5 285/1/5
f 288/1/5 286/1/5 270/1/5
f 288/1/5 287/1/5 286/1/5
f 289/1/5 271/1/5 287/1/5
f 289/1/5 287/1/5 288/1/5
f 290/1/5 288/1/5 270/1/5
f 291/1/5 271/1/5 289/1/5
f 292/1/5 290/1/5 270/1/5
f 292/1/5 291/1/5 290/1/5
f 293/1/5 271/1/5 291/1/5
f 293/1/5 291/1/5 292/1/5
f 298/3/6 299/3/6 300/3/6
f 300/3/6 299/3/6 303/3/6
f 303/3/6 299/3/6 304/3/6
f 296/5/6 297/5/6 305/5/6
f 305/5/6 297/5/6 306/5/6
f 296/5/6 305/5/6 307/5/6
f 306/5/6 297/5/6 308/5/6
f 296/5/6 307/5/6 309/5/6
f 307/5/6 308/5/6 309/5/6
f 308/5/6 297/5/6 310/5/6
f 309/5/6 308/5/6 310/5/6
f 296/5/6 309/5/6 311/5/6
f 310/5/6 297/5/6 312/5/6
f 301/3/6 302/3/6 313/3/6
f 300/3/6 303/3/6 314/3/6
f 301/3/6 313/3/6 315/3/6
f 313/3/6 314/3/6 315/3/6
f 315/3/6 314/3/6 316/3/6
f 311/5/6 312/5/6 317/5/6
f 296/5/6 311/5/6 317/5/6
f 312/5/6 297/5/6 318/5/6
f 317/5/6 312/5/6 318/5/6
f 296/5/6 317/5/6 319/5/6
f 318/5/6 297/5/6 320/5/6
f 316/3/6 314/3/6 321/3/6
f 314/3/6 303/3/6 321/3/6
f 304/3/6 299/3/6 322/3/6
f 316/3/6 321/3/6 323/3/6
f 321/3/6 322/3/6 323/3/6
f 322/3/6 299/3/6 324/3/6
f 323/3/6 322/3/6 324/3/6
f 319/5/6 320/5/6 325/5/6
f 296/5/6 319/5/6 325/5/6
f 320/5/6 297/5/6 326/5/6
f 325/5/6 320/5/6 326/5/6
f 296/5/6 325/5/6 327/5/6
f 326/5/6 297/5/6 328/5/6
f 301/3/6 315/3/6 329/3/6
f 316/3/6 323/3/6 330/3/6
f 301/3/6 329/3/6 331/3/6
f 329/3/6 330/3/6 331/3/6
f 330/3/6 323/3/6 332/3/6
f 331/3/6 330/3/6 332/3/6
f 296/5/6 327/5/6 333/5/6
f 327/5/6 328/5/6 333/5/6
f 328/5/6 297/5/6 334/5/6
f 333/5/6 328/5/6 334/5/6
f 296/5/6 333/5/6 335/5/6
f 334/5/6 297/5/6 336/5/6
f 332/3/6 323/3/6 337/3/6
f 324/3/6 299/3/6 338/3/6
f 301/3/6 331/3/6 339/3/6
f 339/3/6 331/3/6 340/3/6
f 294/5/6 295/5/6 341/5/6
f 295/2/6 296/2/6 342/2/6
f 341/5/6 295/5/6 342/5/6
f 335/5/6 336/5/6 343/5/6
f 342/2/6 296/2/6 343/2/6
f 296/5/6 335/5/6 343/5/6
f 336/5/6 297/5/6 344/5/6
f 343/5/6 336/5/6 344/5/6
f 337/3/6 338/3/6 345/3/6
f 332/3/6 337/3/6 345/3/6
f 338/3/6 299/3/6 346/3/6
f 345/3/6 338/3/6 346/3/6
f 347/1/6 348/1/6 349/1/6
f 349/1/6 348/1/6 350/1/6
f 351/3/6 352/3/6 353/3/6
f 353/3/6 352/3/6 354/3/6
f 355/3/6 356/3/6 357/3/6
f 357/3/6 356/3/6 358/3/6
f 359/4/6 360/4/6 361/4/6
f 361/4/6 360/4/6 362/4/6
f 363/3/6 364/3/6 365/3/6
f 363/3/6 365/3/6 366/3/6
f 366/3/6 365/3/6 367/3/6
f 368/4/6 369/4/6 372/4/6
f 372/4/6 369/4/6 373/4/6
f 370/4/6 371/4/6 374/4/6
f 374/4/6 371/4/6 375/4/6
f 376/3/6 377/3/6 379/3/6
f 378/3/6 379/3/6 380/3/6
f 379/3/6 377/3/6 381/3/6
f 380/3/6 379/3/6 381/3/6
