# MagicaVoxel @ Ephtracy

# group
o 

# material
mtllib sity_1.vox.mtl
usemtl palette

# normals
vn -1 0 0
vn 1 0 0
vn 0 0 1
vn 0 0 -1
vn 0 -1 0
vn 0 1 0

# texcoords
vt 0.322266 0.5
vt 0.537109 0.5
vt 0.744141 0.5
vt 0.982422 0.5

# verts
v -7.5 0 9
v -7.5 0 -9
v -7.5 0.3 9
v -7.5 0.3 -9
v -1 0.3 -5.5
v -1 0.3 -8
v -1 0.4 -5.5
v -1 0.4 -8
v 2.2 0.3 -3.9
v 2.2 0.3 -5.5
v 2.2 0.4 -3.9
v 2.2 0.4 -5.5
v 5.3 0.4 -4.6
v 5.3 0.4 -4.8
v 5.3 1 -4.6
v 5.3 1 -4.8
v 5.5 0.4 -4.6
v 5.5 0.4 -4.8
v 5.5 1 -4.6
v 5.5 1 -4.8
v 6.3 0.3 -3.9
v 6.3 0.3 -8
v 6.3 0.4 -3.9
v 6.3 0.4 -8
v 7.5 0 9
v 7.5 0 -9
v 7.5 0.3 9
v 7.5 0.3 -9
v -7.5 0 9
v -7.5 0.3 9
v 7.5 0 9
v 7.5 0.3 9
v 2.2 0.3 -3.9
v 2.2 0.4 -3.9
v 6.3 0.3 -3.9
v 6.3 0.4 -3.9
v 5.3 0.4 -4.6
v 5.3 1 -4.6
v 5.5 0.4 -4.6
v 5.5 1 -4.6
v -1 0.3 -5.5
v -1 0.4 -5.5
v 2.2 0.3 -5.5
v 2.2 0.4 -5.5
v 5.3 0.4 -4.8
v 5.3 1 -4.8
v 5.5 0.4 -4.8
v 5.5 1 -4.8
v -1 0.3 -8
v -1 0.4 -8
v 6.3 0.3 -8
v 6.3 0.4 -8
v -7.5 0 -9
v -7.5 0.3 -9
v 7.5 0 -9
v 7.5 0.3 -9
v -7.5 0 9
v 7.5 0 9
v -7.5 0 -9
v 7.5 0 -9
v -7.5 0.3 9
v 7.5 0.3 9
v 2.2 0.3 -3.9
v 6.3 0.3 -3.9
v -1 0.3 -5.5
v 2.2 0.3 -5.5
v -1 0.3 -8
v 6.3 0.3 -8
v -7.5 0.3 -9
v 7.5 0.3 -9
v 2.2 0.4 -3.9
v 6.3 0.4 -3.9
v 2.4 0.4 -4.1
v 6.1 0.4 -4.1
v 5.3 0.4 -4.6
v 5.5 0.4 -4.6
v 5.3 0.4 -4.8
v 5.5 0.4 -4.8
v -1 0.4 -5.5
v 2.2 0.4 -5.5
v -0.8 0.4 -5.7
v 2.4 0.4 -5.7
v -0.8 0.4 -7.8
v 6.1 0.4 -7.8
v -1 0.4 -8
v 6.3 0.4 -8
v 5.3 1 -4.6
v 5.5 1 -4.6
v 5.3 1 -4.8
v 5.5 1 -4.8

# faces
f 3/4/1 2/4/1 1/4/1
f 4/4/1 2/4/1 3/4/1
f 7/1/1 6/1/1 5/1/1
f 8/1/1 6/1/1 7/1/1
f 11/1/1 10/1/1 9/1/1
f 12/1/1 10/1/1 11/1/1
f 15/2/1 14/2/1 13/2/1
f 16/2/1 14/2/1 15/2/1
f 17/2/2 18/2/2 19/2/2
f 19/2/2 18/2/2 20/2/2
f 21/1/2 22/1/2 23/1/2
f 23/1/2 22/1/2 24/1/2
f 25/4/2 26/4/2 27/4/2
f 27/4/2 26/4/2 28/4/2
f 31/4/3 30/4/3 29/4/3
f 32/4/3 30/4/3 31/4/3
f 35/1/3 34/1/3 33/1/3
f 36/1/3 34/1/3 35/1/3
f 39/2/3 38/2/3 37/2/3
f 40/2/3 38/2/3 39/2/3
f 43/1/3 42/1/3 41/1/3
f 44/1/3 42/1/3 43/1/3
f 45/2/4 46/2/4 47/2/4
f 47/2/4 46/2/4 48/2/4
f 49/1/4 50/1/4 51/1/4
f 51/1/4 50/1/4 52/1/4
f 53/4/4 54/4/4 55/4/4
f 55/4/4 54/4/4 56/4/4
f 59/4/5 58/4/5 57/4/5
f 60/4/5 58/4/5 59/4/5
f 61/4/6 62/4/6 63/4/6
f 63/4/6 62/4/6 64/4/6
f 61/4/6 63/4/6 65/4/6
f 65/4/6 63/4/6 66/4/6
f 61/4/6 65/4/6 67/4/6
f 64/4/6 62/4/6 68/4/6
f 61/4/6 67/4/6 69/4/6
f 67/4/6 68/4/6 69/4/6
f 68/4/6 62/4/6 70/4/6
f 69/4/6 68/4/6 70/4/6
f 71/1/6 72/1/6 73/1/6
f 73/1/6 72/1/6 74/1/6
f 73/3/6 74/3/6 75/3/6
f 75/3/6 74/3/6 76/3/6
f 73/3/6 75/3/6 77/3/6
f 76/3/6 74/3/6 78/3/6
f 71/1/6 73/1/6 80/1/6
f 79/1/6 80/1/6 81/1/6
f 77/3/6 78/3/6 82/3/6
f 81/1/6 80/1/6 82/1/6
f 73/3/6 77/3/6 82/3/6
f 80/1/6 73/1/6 82/1/6
f 79/1/6 81/1/6 83/1/6
f 81/3/6 82/3/6 83/3/6
f 82/3/6 78/3/6 84/3/6
f 83/3/6 82/3/6 84/3/6
f 74/1/6 72/1/6 84/1/6
f 78/3/6 74/3/6 84/3/6
f 79/1/6 83/1/6 85/1/6
f 83/1/6 84/1/6 85/1/6
f 84/1/6 72/1/6 86/1/6
f 85/1/6 84/1/6 86/1/6
f 87/2/6 88/2/6 89/2/6
f 89/2/6 88/2/6 90/2/6
