<?xml version="1.0" encoding="utf-8"?>
<!-- Generator: Adobe Illustrator 24.1.1, SVG Export Plug-In . SVG Version: 6.00 Build 0)  -->
<svg version="1.1" id="Layer_1" xmlns="http://www.w3.org/2000/svg" xmlns:xlink="http://www.w3.org/1999/xlink" x="0px" y="0px"
	 viewBox="0 0 500 500" style="enable-background:new 0 0 500 500;" xml:space="preserve">
<style type="text/css">
	.st0{fill:#FFC24A;}
	.st1{fill:#F4BD62;}
	.st2{fill:#F6820C;}
	.st3{fill:#FDE068;}
	.st4{fill:#FCCA3F;}
	.st5{fill:#EEAB37;}
	.st6{fill:#FFFFFF;stroke:#1D1D1B;stroke-miterlimit:10;}
</style>
<g id="XMLID_1_">
	<path id="XMLID_2_" class="st0" d="M117.1,320.1l2.2-3.1l104.5-198.3l0.2-2.1L177.9,30c-3.9-7.3-14.7-5.4-16,2.7L117.1,320.1z"/>
	<path id="XMLID_3_" class="st1" d="M257.6,182.1l34.3-35.1l-34.3-65.5c-3.3-6.2-12.4-6.2-15.6,0l-18.3,35v3L257.6,182.1z"/>
	<polygon id="XMLID_4_" class="st2" points="117.1,320.1 118.1,319.1 121.7,317.6 255.5,184.4 257.1,179.8 223.8,116.2 	"/>
	<path id="XMLID_5_" class="st3" d="M261.9,387.3l121-67.5l-34.6-212.9c-1.1-6.7-9.3-9.3-14-4.5L117.1,320.1l120.4,67.2
		C245,391.6,254.3,391.6,261.9,387.3"/>
	<path id="XMLID_6_" class="st4" d="M381.9,319.2L347.6,108c-1.1-6.6-7.9-9.3-12.6-4.6L118.4,319.7l119,66.5
		c7.5,4.2,16.7,4.2,24.3,0L381.9,319.2z"/>
	<path id="XMLID_7_" class="st5" d="M261.9,385.3c-7.6,4.2-16.9,4.2-24.5,0L118,319.1l-1,1l120.4,67.2c7.6,4.2,16.9,4.2,24.5,0
		l121-67.5l-0.3-1.8L261.9,385.3z"/>
</g>
<g>
	<path class="st6" d="M138.2,416.7h24.6v5h-18.7v15.2h17.3v4.9h-17.3v20.7h-5.9V416.7z"/>
	<path class="st6" d="M175.9,420.4c0.1,2-1.4,3.7-3.8,3.7c-2.1,0-3.6-1.6-3.6-3.7c0-2.1,1.6-3.7,3.7-3.7
		C174.5,416.6,175.9,418.3,175.9,420.4z M169.3,462.4v-32.8h6v32.8H169.3z"/>
	<path class="st6" d="M185.2,439.8c0-3.9-0.1-7.2-0.3-10.2h5.2l0.2,6.4h0.3c1.5-4.4,5.1-7.2,9.1-7.2c0.7,0,1.2,0.1,1.7,0.2v5.6
		c-0.6-0.1-1.2-0.2-2-0.2c-4.2,0-7.2,3.2-8,7.7c-0.1,0.8-0.3,1.8-0.3,2.8v17.5h-5.9V439.8z"/>
	<path class="st6" d="M210,447.1c0.1,8.1,5.3,11.4,11.3,11.4c4.3,0,6.9-0.7,9.1-1.7l1,4.3c-2.1,1-5.7,2-10.9,2
		c-10.1,0-16.1-6.7-16.1-16.6c0-9.9,5.8-17.7,15.4-17.7c10.7,0,13.6,9.4,13.6,15.5c0,1.2-0.1,2.2-0.2,2.8H210z M227.5,442.8
		c0.1-3.8-1.6-9.7-8.3-9.7c-6,0-8.7,5.6-9.2,9.7H227.5z"/>
	<path class="st6" d="M240.9,417.3c2.6-0.5,6.6-0.9,10.8-0.9c5.9,0,9.7,1,12.5,3.3c2.4,1.8,3.8,4.5,3.8,8.1c0,4.4-2.9,8.3-7.7,10
		v0.1c4.3,1.1,9.4,4.7,9.4,11.5c0,3.9-1.6,6.9-3.9,9.2c-3.2,2.9-8.3,4.3-15.8,4.3c-4.1,0-7.2-0.3-9.2-0.5V417.3z M246.8,436h5.4
		c6.2,0,9.9-3.3,9.9-7.7c0-5.4-4.1-7.5-10-7.5c-2.7,0-4.3,0.2-5.2,0.4V436z M246.8,457.9c1.2,0.2,2.8,0.3,5,0.3
		c6.1,0,11.7-2.2,11.7-8.9c0-6.2-5.4-8.8-11.8-8.8h-4.9V457.9z"/>
	<path class="st6" d="M295.7,462.4l-0.5-4.1H295c-1.8,2.6-5.4,4.9-10,4.9c-6.6,0-10-4.7-10-9.4c0-7.9,7.1-12.3,19.7-12.2v-0.7
		c0-2.7-0.7-7.6-7.5-7.6c-3.1,0-6.2,0.9-8.5,2.4l-1.4-3.9c2.7-1.8,6.7-2.9,10.8-2.9c10,0,12.5,6.8,12.5,13.4v12.3
		c0,2.9,0.1,5.6,0.5,7.9H295.7z M294.8,445.7c-6.5-0.1-13.9,1-13.9,7.4c0,3.9,2.6,5.7,5.6,5.7c4.3,0,7-2.7,7.9-5.5
		c0.2-0.6,0.3-1.3,0.3-1.9V445.7z"/>
	<path class="st6" d="M309.4,456.3c1.8,1.1,4.9,2.4,7.9,2.4c4.3,0,6.4-2.2,6.4-4.9c0-2.9-1.7-4.4-6.1-6c-5.9-2.1-8.7-5.4-8.7-9.3
		c0-5.3,4.3-9.6,11.3-9.6c3.3,0,6.2,1,8.1,2l-1.5,4.3c-1.3-0.8-3.7-1.9-6.7-1.9c-3.5,0-5.5,2-5.5,4.5c0,2.7,2,3.9,6.2,5.6
		c5.7,2.2,8.6,5,8.6,9.9c0,5.8-4.5,9.8-12.3,9.8c-3.6,0-6.9-0.9-9.2-2.2L309.4,456.3z"/>
	<path class="st6" d="M340.4,447.1c0.1,8.1,5.3,11.4,11.3,11.4c4.3,0,6.9-0.7,9.1-1.7l1,4.3c-2.1,1-5.7,2-10.9,2
		c-10.1,0-16.1-6.7-16.1-16.6c0-9.9,5.8-17.7,15.4-17.7c10.7,0,13.6,9.4,13.6,15.5c0,1.2-0.1,2.2-0.2,2.8H340.4z M357.9,442.8
		c0.1-3.8-1.6-9.7-8.3-9.7c-6,0-8.7,5.6-9.2,9.7H357.9z"/>
</g>
</svg>
