<?xml version="1.0" encoding="utf-8"?>
<!-- Generator: Adobe Illustrator 24.1.1, SVG Export Plug-In . SVG Version: 6.00 Build 0)  -->
<svg version="1.1" id="Layer_1" xmlns="http://www.w3.org/2000/svg" xmlns:xlink="http://www.w3.org/1999/xlink" x="0px" y="0px"
	 viewBox="0 0 500 500" style="enable-background:new 0 0 500 500;" xml:space="preserve">
<style type="text/css">
	.st0{fill:#FFFFFF;stroke:#1D1D1B;stroke-miterlimit:10;}
</style>
<g>
	<path class="st0" d="M5.9,197h9.8v67.9h32.5v8.2H5.9V197z"/>
	<path class="st0" d="M106.8,245.3c0,20.2-14,29-27.2,29c-14.8,0-26.2-10.8-26.2-28.1c0-18.3,12-29,27.1-29
		C96.2,217.2,106.8,228.6,106.8,245.3z M63.4,245.8c0,12,6.9,21,16.6,21c9.5,0,16.6-8.9,16.6-21.2c0-9.3-4.6-21-16.4-21
		C68.5,224.6,63.4,235.5,63.4,245.8z"/>
	<path class="st0" d="M149.6,273.1l-0.8-6.9h-0.3c-3,4.3-8.9,8.1-16.7,8.1c-11.1,0-16.7-7.8-16.7-15.7c0-13.2,11.7-20.4,32.9-20.3
		v-1.1c0-4.5-1.2-12.6-12.4-12.6c-5.1,0-10.4,1.6-14.2,4.1L119,222c4.5-2.9,11.1-4.9,18-4.9c16.7,0,20.8,11.4,20.8,22.4V260
		c0,4.7,0.2,9.4,0.9,13.1H149.6z M148.1,245.2c-10.8-0.2-23.1,1.7-23.1,12.3c0,6.4,4.3,9.5,9.4,9.5c7.1,0,11.6-4.5,13.2-9.1
		c0.3-1,0.6-2.1,0.6-3.2V245.2z"/>
	<path class="st0" d="M221,192.9V259c0,4.9,0.1,10.4,0.5,14.1h-8.9l-0.5-9.5h-0.2c-3.1,6.1-9.7,10.7-18.6,10.7
		c-13.2,0-23.4-11.2-23.4-27.8c-0.1-18.2,11.2-29.4,24.5-29.4c8.4,0,14,3.9,16.5,8.4h0.2v-32.6H221z M211.1,240.7
		c0-1.2-0.1-2.9-0.5-4.2c-1.5-6.3-6.9-11.5-14.3-11.5c-10.3,0-16.4,9-16.4,21.1c0,11.1,5.4,20.2,16.2,20.2c6.7,0,12.8-4.4,14.6-11.9
		c0.3-1.4,0.5-2.7,0.5-4.3V240.7z"/>
	<path class="st0" d="M248.6,203.1c0.1,3.4-2.4,6.1-6.3,6.1c-3.5,0-6-2.7-6-6.1c0-3.5,2.6-6.2,6.2-6.2
		C246.2,196.8,248.6,199.6,248.6,203.1z M237.5,273.1v-54.7h9.9v54.7H237.5z"/>
	<path class="st0" d="M264,233.2c0-5.6-0.1-10.3-0.5-14.8h8.8l0.6,9h0.2c2.7-5.2,9-10.3,18.1-10.3c7.6,0,19.3,4.5,19.3,23.3v32.6
		h-9.9v-31.5c0-8.8-3.3-16.1-12.6-16.1c-6.5,0-11.6,4.6-13.3,10.2c-0.5,1.2-0.7,2.9-0.7,4.6v32.9H264V233.2z"/>
	<path class="st0" d="M373.8,218.4c-0.2,3.9-0.5,8.4-0.5,15v31.7c0,12.5-2.5,20.2-7.8,25c-5.3,5-13,6.6-19.9,6.6
		c-6.6,0-13.8-1.6-18.2-4.5l2.5-7.6c3.6,2.3,9.3,4.3,16,4.3c10.2,0,17.6-5.3,17.6-19.1v-6.1h-0.2c-3,5.1-8.9,9.1-17.4,9.1
		c-13.5,0-23.3-11.5-23.3-26.7c0-18.5,12.1-29,24.6-29c9.5,0,14.7,5,17.1,9.5h0.2l0.5-8.2H373.8z M363.5,240c0-1.7-0.1-3.2-0.6-4.5
		c-1.8-5.8-6.7-10.5-13.9-10.5c-9.5,0-16.3,8-16.3,20.7c0,10.7,5.4,19.6,16.2,19.6c6.1,0,11.6-3.8,13.8-10.2
		c0.6-1.7,0.8-3.6,0.8-5.3V240z"/>
	<path class="st0" d="M411.4,267.2c0-4.2,2.8-7.1,6.8-7.1c4,0,6.7,2.9,6.7,7.1c0,4.1-2.6,7.1-6.8,7.1
		C414.1,274.3,411.4,271.3,411.4,267.2z"/>
	<path class="st0" d="M434.8,267.2c0-4.2,2.8-7.1,6.8-7.1s6.7,2.9,6.7,7.1c0,4.1-2.6,7.1-6.8,7.1
		C437.5,274.3,434.8,271.3,434.8,267.2z"/>
	<path class="st0" d="M458.2,267.2c0-4.2,2.8-7.1,6.8-7.1s6.7,2.9,6.7,7.1c0,4.1-2.6,7.1-6.8,7.1
		C460.9,274.3,458.2,271.3,458.2,267.2z"/>
	<path class="st0" d="M481.6,267.2c0-4.2,2.8-7.1,6.8-7.1c4,0,6.7,2.9,6.7,7.1c0,4.1-2.6,7.1-6.8,7.1
		C484.3,274.3,481.6,271.3,481.6,267.2z"/>
</g>
</svg>
