<?xml version="1.0" encoding="utf-8"?>
<!-- Generator: Adobe Illustrator 24.1.1, SVG Export Plug-In . SVG Version: 6.00 Build 0)  -->
<svg version="1.1" id="Layer_1" xmlns="http://www.w3.org/2000/svg" xmlns:xlink="http://www.w3.org/1999/xlink" x="0px" y="0px"
	 viewBox="0 0 640 640" style="enable-background:new 0 0 640 640;" xml:space="preserve">
<style type="text/css">
	.st0{fill:#FFFFFF;}
	.st1{fill:none;stroke:#000000;stroke-width:7;stroke-miterlimit:10;}
	.st2{fill:#FFFFFF;stroke:#000000;stroke-width:7;stroke-miterlimit:10;}
	.st3{fill:#FFFFFF;stroke:#1D1D1B;stroke-miterlimit:10;}
</style>
<polyline class="st0" points="171.7,621.7 20,18.4 620,186.9 "/>
<g>
	<line class="st1" x1="245.8" y1="362.4" x2="283.7" y2="513.3"/>
	<line class="st1" x1="395.5" y1="404.8" x2="245.8" y2="362.4"/>
	<line class="st1" x1="283.7" y1="513.3" x2="395.5" y2="404.8"/>
	<path class="st2" d="M134,470.9"/>
	<line class="st1" x1="283.7" y1="513.3" x2="134" y2="470.9"/>
	<path class="st2" d="M134,470.9"/>
	<polyline class="st1" points="134,470.9 171.9,621.9 283.7,513.3 	"/>
	<line class="st1" x1="134" y1="470.9" x2="245.8" y2="362.4"/>
	<line class="st1" x1="245.8" y1="362.4" x2="357.7" y2="253.8"/>
	<line class="st1" x1="357.7" y1="253.8" x2="469.5" y2="145.3"/>
	<line class="st1" x1="319.8" y1="102.9" x2="357.7" y2="253.8"/>
	<line class="st1" x1="357.7" y1="253.8" x2="207.9" y2="211.5"/>
	<line class="st1" x1="207.9" y1="211.5" x2="245.8" y2="362.4"/>
	<line class="st1" x1="245.8" y1="362.4" x2="96.1" y2="320"/>
	<line class="st1" x1="96.1" y1="320" x2="134" y2="470.9"/>
	<line class="st1" x1="58.2" y1="169.1" x2="96.1" y2="320"/>
	<line class="st1" x1="207.9" y1="211.5" x2="58.2" y2="169.1"/>
	<line class="st1" x1="96.1" y1="320" x2="207.9" y2="211.5"/>
	<line class="st1" x1="207.9" y1="211.4" x2="319.8" y2="102.9"/>
	<line class="st1" x1="319.8" y1="102.9" x2="170" y2="60.5"/>
	<line class="st1" x1="170" y1="60.5" x2="207.9" y2="211.4"/>
	<polyline class="st1" points="58.2,169.1 20.3,18.1 170,60.5 	"/>
	<line class="st1" x1="58.2" y1="169.1" x2="170" y2="60.5"/>
	<polyline class="st1" points="507.4,296.2 619.2,187.7 469.5,145.3 	"/>
	<line class="st1" x1="469.5" y1="145.3" x2="507.4" y2="296.2"/>
	<line class="st1" x1="507.4" y1="296.2" x2="357.7" y2="253.8"/>
	<line class="st1" x1="357.7" y1="253.8" x2="395.5" y2="404.8"/>
	<line class="st1" x1="395.5" y1="404.8" x2="507.4" y2="296.2"/>
	<line class="st1" x1="469.5" y1="145.3" x2="319.8" y2="102.9"/>
</g>
<g>
	<path class="st3" d="M370.4,578.4h-14.6v-5.3h35.5v5.3h-14.7v42.7h-6.3V578.4z"/>
	<path class="st3" d="M402.9,573.2v20.1H426v-20.1h6.3v48H426v-22.5h-23.2v22.5h-6.2v-48H402.9z"/>
	<path class="st3" d="M443.1,573.8c3.1-0.6,7.6-1,11.9-1c6.6,0,10.9,1.2,13.9,3.9c2.4,2.1,3.8,5.4,3.8,9.1c0,6.3-4,10.5-9,12.2v0.2
		c3.7,1.3,5.9,4.7,7,9.7c1.6,6.7,2.7,11.3,3.7,13.2h-6.4c-0.8-1.3-1.9-5.5-3.2-11.5c-1.4-6.6-4-9.1-9.6-9.3h-5.8v20.8h-6.2V573.8z
		 M449.3,595.6h6.3c6.6,0,10.8-3.6,10.8-9.1c0-6.2-4.5-8.9-11-9c-3,0-5.1,0.3-6.1,0.6V595.6z"/>
	<path class="st3" d="M506.2,598.6h-18.6v17.3h20.8v5.2h-27v-48h25.9v5.2h-19.7v15.2h18.6V598.6z"/>
	<path class="st3" d="M541.2,598.6h-18.6v17.3h20.8v5.2h-27v-48h25.9v5.2h-19.7v15.2h18.6V598.6z"/>
	<path class="st3" d="M549.4,617.4c0-2.6,1.8-4.5,4.3-4.5c2.5,0,4.2,1.8,4.2,4.5c0,2.6-1.6,4.5-4.3,4.5
		C551.1,621.9,549.4,620,549.4,617.4z"/>
	<path class="st3" d="M575.7,573.2h6.2v32.1c0,12.7-6.3,16.6-14.5,16.6c-2.3,0-5.1-0.5-6.6-1.1l0.9-5.1c1.3,0.5,3.1,0.9,5.2,0.9
		c5.5,0,8.8-2.5,8.8-11.9V573.2z"/>
	<path class="st3" d="M591.4,613.6c2.8,1.7,6.8,3.1,11.1,3.1c6.3,0,10-3.3,10-8.2c0-4.5-2.6-7-9-9.5c-7.8-2.8-12.7-6.8-12.7-13.6
		c0-7.5,6.2-13,15.5-13c4.9,0,8.5,1.1,10.6,2.4l-1.7,5.1c-1.6-0.9-4.8-2.3-9.1-2.3c-6.5,0-9,3.9-9,7.2c0,4.5,2.9,6.7,9.5,9.3
		c8.1,3.1,12.2,7,12.2,14.1c0,7.4-5.5,13.8-16.8,13.8c-4.6,0-9.7-1.4-12.2-3.1L591.4,613.6z"/>
</g>
</svg>
