# MagicaVoxel @ Ephtracy

# group
o 

# material
mtllib sity_1.vox.mtl
usemtl palette

# normals
vn -1 0 0
vn 1 0 0
vn 0 0 1
vn 0 0 -1
vn 0 -1 0
vn 0 1 0

# texcoords
vt 0.978516 0.5
vt 0.986328 0.5

# verts
v -7.5 0 9
v -7.5 0 -9
v -7.5 0.5 9
v -7.5 0.5 -9
v -5.8 0.5 8.3
v -5.8 0.5 4.6
v -5.8 0.5 3.4
v -5.8 0.5 -0.599999
v -5.8 0.5 -1.7
v -5.8 0.5 -7
v -5.8 5.9 3.4
v -5.8 5.9 -0.599999
v -5.8 7.1 8.3
v -5.8 7.1 4.6
v -5.8 8.9 -1.7
v -5.8 8.9 -7
v 1.3 0.5 8.3
v 1.3 0.5 4.6
v 1.3 0.5 3.4
v 1.3 0.5 -3.4
v 1.3 0.5 -4.6
v 1.3 0.5 -8.3
v 1.3 5.9 3.4
v 1.3 5.9 -3.4
v 1.3 7.1 8.3
v 1.3 7.1 4.6
v 1.3 7.1 -4.6
v 1.3 7.1 -8.3
v -2.5 0.5 8.3
v -2.5 0.5 4.6
v -2.5 0.5 3.4
v -2.5 0.5 -0.599999
v -2.5 0.5 -1.7
v -2.5 0.5 -7
v -2.5 5.9 3.4
v -2.5 5.9 -0.599999
v -2.5 7.1 8.3
v -2.5 7.1 4.6
v -2.5 8.9 -1.7
v -2.5 8.9 -7
v 4.6 0.5 8.3
v 4.6 0.5 4.6
v 4.6 0.5 3.4
v 4.6 0.5 -3.4
v 4.6 0.5 -4.6
v 4.6 0.5 -8.3
v 4.6 5.9 3.4
v 4.6 5.9 -3.4
v 4.6 7.1 8.3
v 4.6 7.1 4.6
v 4.6 7.1 -4.6
v 4.6 7.1 -8.3
v 7.5 0 9
v 7.5 0 -9
v 7.5 0.5 9
v 7.5 0.5 -9
v -7.5 0 9
v -7.5 0.5 9
v 7.5 0 9
v 7.5 0.5 9
v -5.8 0.5 8.3
v -5.8 7.1 8.3
v -2.5 0.5 8.3
v -2.5 7.1 8.3
v 1.3 0.5 8.3
v 1.3 7.1 8.3
v 4.6 0.5 8.3
v 4.6 7.1 8.3
v -5.8 0.5 3.4
v -5.8 5.9 3.4
v -2.5 0.5 3.4
v -2.5 5.9 3.4
v 1.3 0.5 3.4
v 1.3 5.9 3.4
v 4.6 0.5 3.4
v 4.6 5.9 3.4
v -5.8 0.5 -1.7
v -5.8 8.9 -1.7
v -2.5 0.5 -1.7
v -2.5 8.9 -1.7
v 1.3 0.5 -4.6
v 1.3 7.1 -4.6
v 4.6 0.5 -4.6
v 4.6 7.1 -4.6
v -5.8 0.5 4.6
v -5.8 7.1 4.6
v -2.5 0.5 4.6
v -2.5 7.1 4.6
v 1.3 0.5 4.6
v 1.3 7.1 4.6
v 4.6 0.5 4.6
v 4.6 7.1 4.6
v -5.8 0.5 -0.599999
v -5.8 5.9 -0.599999
v -2.5 0.5 -0.599999
v -2.5 5.9 -0.599999
v 1.3 0.5 -3.4
v 1.3 5.9 -3.4
v 4.6 0.5 -3.4
v 4.6 5.9 -3.4
v -5.8 0.5 -7
v -5.8 8.9 -7
v -2.5 0.5 -7
v -2.5 8.9 -7
v 1.3 0.5 -8.3
v 1.3 7.1 -8.3
v 4.6 0.5 -8.3
v 4.6 7.1 -8.3
v -7.5 0 -9
v -7.5 0.5 -9
v 7.5 0 -9
v 7.5 0.5 -9
v -7.5 0 9
v 7.5 0 9
v -7.5 0 -9
v 7.5 0 -9
v -7.5 0.5 9
v 7.5 0.5 9
v -5.8 0.5 8.3
v -2.5 0.5 8.3
v 1.3 0.5 8.3
v 4.6 0.5 8.3
v -5.8 0.5 4.6
v -2.5 0.5 4.6
v 1.3 0.5 4.6
v 4.6 0.5 4.6
v -5.8 0.5 3.4
v -2.5 0.5 3.4
v 1.3 0.5 3.4
v 4.6 0.5 3.4
v -5.8 0.5 -0.599999
v -2.5 0.5 -0.599999
v -5.8 0.5 -1.7
v -2.5 0.5 -1.7
v 1.3 0.5 -3.4
v 4.6 0.5 -3.4
v 1.3 0.5 -4.6
v 4.6 0.5 -4.6
v -5.8 0.5 -7
v -2.5 0.5 -7
v 1.3 0.5 -8.3
v 4.6 0.5 -8.3
v -7.5 0.5 -9
v 7.5 0.5 -9
v -5.8 5.9 3.4
v -2.5 5.9 3.4
v 1.3 5.9 3.4
v 4.6 5.9 3.4
v -5.8 5.9 -0.599999
v -2.5 5.9 -0.599999
v 1.3 5.9 -3.4
v 4.6 5.9 -3.4
v -5.8 7.1 8.3
v -2.5 7.1 8.3
v 1.3 7.1 8.3
v 4.6 7.1 8.3
v -5.8 7.1 4.6
v -2.5 7.1 4.6
v 1.3 7.1 4.6
v 4.6 7.1 4.6
v 1.3 7.1 -4.6
v 4.6 7.1 -4.6
v 1.3 7.1 -8.3
v 4.6 7.1 -8.3
v -5.8 8.9 -1.7
v -2.5 8.9 -1.7
v -5.8 8.9 -7
v -2.5 8.9 -7

# faces
f 3/2/1 2/2/1 1/2/1
f 4/2/1 2/2/1 3/2/1
f 11/1/1 8/1/1 7/1/1
f 12/1/1 8/1/1 11/1/1
f 13/1/1 6/1/1 5/1/1
f 14/1/1 6/1/1 13/1/1
f 15/1/1 10/1/1 9/1/1
f 16/1/1 10/1/1 15/1/1
f 23/1/1 20/1/1 19/1/1
f 24/1/1 20/1/1 23/1/1
f 25/1/1 18/1/1 17/1/1
f 26/1/1 18/1/1 25/1/1
f 27/1/1 22/1/1 21/1/1
f 28/1/1 22/1/1 27/1/1
f 31/1/2 32/1/2 35/1/2
f 35/1/2 32/1/2 36/1/2
f 29/1/2 30/1/2 37/1/2
f 37/1/2 30/1/2 38/1/2
f 33/1/2 34/1/2 39/1/2
f 39/1/2 34/1/2 40/1/2
f 43/1/2 44/1/2 47/1/2
f 47/1/2 44/1/2 48/1/2
f 41/1/2 42/1/2 49/1/2
f 49/1/2 42/1/2 50/1/2
f 45/1/2 46/1/2 51/1/2
f 51/1/2 46/1/2 52/1/2
f 53/2/2 54/2/2 55/2/2
f 55/2/2 54/2/2 56/2/2
f 59/2/3 58/2/3 57/2/3
f 60/2/3 58/2/3 59/2/3
f 63/1/3 62/1/3 61/1/3
f 64/1/3 62/1/3 63/1/3
f 67/1/3 66/1/3 65/1/3
f 68/1/3 66/1/3 67/1/3
f 71/1/3 70/1/3 69/1/3
f 72/1/3 70/1/3 71/1/3
f 75/1/3 74/1/3 73/1/3
f 76/1/3 74/1/3 75/1/3
f 79/1/3 78/1/3 77/1/3
f 80/1/3 78/1/3 79/1/3
f 83/1/3 82/1/3 81/1/3
f 84/1/3 82/1/3 83/1/3
f 85/1/4 86/1/4 87/1/4
f 87/1/4 86/1/4 88/1/4
f 89/1/4 90/1/4 91/1/4
f 91/1/4 90/1/4 92/1/4
f 93/1/4 94/1/4 95/1/4
f 95/1/4 94/1/4 96/1/4
f 97/1/4 98/1/4 99/1/4
f 99/1/4 98/1/4 100/1/4
f 101/1/4 102/1/4 103/1/4
f 103/1/4 102/1/4 104/1/4
f 105/1/4 106/1/4 107/1/4
f 107/1/4 106/1/4 108/1/4
f 109/2/4 110/2/4 111/2/4
f 111/2/4 110/2/4 112/2/4
f 115/2/5 114/2/5 113/2/5
f 116/2/5 114/2/5 115/2/5
f 117/2/6 118/2/6 119/2/6
f 119/2/6 118/2/6 120/2/6
f 120/2/6 118/2/6 121/2/6
f 121/2/6 118/2/6 122/2/6
f 117/2/6 119/2/6 123/2/6
f 120/2/6 121/2/6 124/2/6
f 124/2/6 121/2/6 125/2/6
f 122/2/6 118/2/6 126/2/6
f 124/2/6 125/2/6 127/2/6
f 125/2/6 126/2/6 127/2/6
f 117/2/6 123/2/6 127/2/6
f 123/2/6 124/2/6 127/2/6
f 127/2/6 126/2/6 128/2/6
f 128/2/6 126/2/6 129/2/6
f 126/2/6 118/2/6 130/2/6
f 129/2/6 126/2/6 130/2/6
f 117/2/6 127/2/6 131/2/6
f 128/2/6 129/2/6 132/2/6
f 117/2/6 131/2/6 133/2/6
f 131/2/6 132/2/6 133/2/6
f 132/2/6 129/2/6 134/2/6
f 133/2/6 132/2/6 134/2/6
f 134/2/6 129/2/6 135/2/6
f 130/2/6 118/2/6 136/2/6
f 134/2/6 135/2/6 137/2/6
f 135/2/6 136/2/6 137/2/6
f 136/2/6 118/2/6 138/2/6
f 137/2/6 136/2/6 138/2/6
f 117/2/6 133/2/6 139/2/6
f 134/2/6 137/2/6 140/2/6
f 140/2/6 137/2/6 141/2/6
f 139/2/6 140/2/6 141/2/6
f 138/2/6 118/2/6 142/2/6
f 139/2/6 141/2/6 143/2/6
f 141/2/6 142/2/6 143/2/6
f 117/2/6 139/2/6 143/2/6
f 142/2/6 118/2/6 144/2/6
f 143/2/6 142/2/6 144/2/6
f 145/1/6 146/1/6 149/1/6
f 149/1/6 146/1/6 150/1/6
f 147/1/6 148/1/6 151/1/6
f 151/1/6 148/1/6 152/1/6
f 153/1/6 154/1/6 157/1/6
f 157/1/6 154/1/6 158/1/6
f 155/1/6 156/1/6 159/1/6
f 159/1/6 156/1/6 160/1/6
f 161/1/6 162/1/6 163/1/6
f 163/1/6 162/1/6 164/1/6
f 165/1/6 166/1/6 167/1/6
f 167/1/6 166/1/6 168/1/6
