# MagicaVoxel @ Ephtracy

# group
o 

# material
mtllib sity_4.mtl
usemtl palette

# normals
vn -1 0 0
vn 1 0 0
vn 0 0 1
vn 0 0 -1
vn 0 -1 0
vn 0 1 0

# texcoords
vt 0.310547 0.5
vt 0.404297 0.5
vt 0.958984 0.5
vt 0.966797 0.5
vt 0.982422 0.5
vt 0.986328 0.5
vt 0.990234 0.5
vt 0.994141 0.5

# verts
v -7.6 0.3 9
v -7.6 0.3 -9
v -7.6 0.5 9
v -7.6 0.5 -9
v -7.5 0 9
v -7.5 0 -9
v -7.5 0.3 9
v -7.5 0.3 -9
v -6.2 3.3 9
v -6.2 3.3 -9
v -6.2 3.5 9
v -6.2 3.5 -9
v -6.1 0.5 7
v -6.1 0.5 6.8
v -6.1 0.5 3.6
v -6.1 0.5 3.4
v -6.1 0.5 0.3
v -6.1 0.5 0.1
v -6.1 0.5 -3.2
v -6.1 0.5 -3.4
v -6.1 0.5 -6.7
v -6.1 0.5 -6.9
v -6.1 3.3 7
v -6.1 3.3 6.8
v -6.1 3.3 3.6
v -6.1 3.3 3.4
v -6.1 3.3 0.3
v -6.1 3.3 0.1
v -6.1 3.3 -3.2
v -6.1 3.3 -3.4
v -6.1 3.3 -6.7
v -6.1 3.3 -6.9
v -4.6 8.3 9
v -4.6 8.3 -8.9
v -4.6 8.5 9
v -4.6 8.5 -8.9
v -4.5 0.5 9
v -4.5 0.5 -9
v -4.5 0.6 -3.8
v -4.5 0.6 -4.7
v -4.5 0.6 -4.8
v -4.5 0.6 -5.8
v -4.5 0.6 -5.9
v -4.5 0.6 -6.9
v -4.5 0.6 -7.1
v -4.5 0.6 -7.9
v -4.5 0.6 -8
v -4.5 0.6 -8.8
v -4.5 2.3 -3.8
v -4.5 2.3 -4.7
v -4.5 2.3 -4.8
v -4.5 2.3 -5.8
v -4.5 2.3 -5.9
v -4.5 2.3 -6.9
v -4.5 2.3 -7.1
v -4.5 2.3 -7.9
v -4.5 2.3 -8
v -4.5 2.3 -8.8
v -4.5 2.4 -3.8
v -4.5 2.4 -6.9
v -4.5 2.4 -7.1
v -4.5 2.4 -8.8
v -4.5 3 -3.8
v -4.5 3 -6.9
v -4.5 3 -7.1
v -4.5 3 -8.8
v -4.5 3.3 9
v -4.5 3.3 -8.9
v -4.5 3.3 -9
v -4.5 3.5 9
v -4.5 3.5 -8.9
v -4.5 3.9 8.5
v -4.5 3.9 -8.8
v -4.5 8.3 9
v -4.5 8.3 8.5
v -4.5 8.3 -8.8
v -4.5 8.3 -8.9
v -4.5 8.5 9
v -4.5 8.5 8.5
v -4.5 8.5 -8.8
v -4.5 8.5 -8.9
v -4.5 9 8.5
v -4.5 9 -8.8
v -4.5 9.5 9
v -4.5 9.5 -8.9
v -3.5 0.4 9
v -3.5 0.4 7.2
v -3.5 0.5 9
v -3.5 0.5 7.2
v -3 0.4 -1.2
v -3 0.4 -2.1
v -3 0.5 -1.2
v -3 0.5 -2.1
v 1.4 0.4 1.7
v 1.4 0.4 -1.2
v 1.4 0.5 1.7
v 1.4 0.5 -1.2
v 1.5 0.5 8.9
v 1.5 0.5 7.7
v 1.5 0.6 9
v 1.5 0.6 8.9
v 1.5 4.4 9
v 1.5 4.4 7.7
v 5 0.4 7.8
v 5 0.4 7.7
v 5 0.5 9
v 5 0.5 7.8
v 5 0.5 7.7
v 5 4.4 9
v 5 4.4 7.7
v 6.5 0.4 7.8
v 6.5 0.4 -0.599999
v 6.5 0.5 7.8
v 6.5 0.5 -0.599999
v -5.9 0.5 7
v -5.9 0.5 6.8
v -5.9 0.5 3.6
v -5.9 0.5 3.4
v -5.9 0.5 0.3
v -5.9 0.5 0.1
v -5.9 0.5 -3.2
v -5.9 0.5 -3.4
v -5.9 0.5 -6.7
v -5.9 0.5 -6.9
v -5.9 3.3 7
v -5.9 3.3 6.8
v -5.9 3.3 3.6
v -5.9 3.3 3.4
v -5.9 3.3 0.3
v -5.9 3.3 0.1
v -5.9 3.3 -3.2
v -5.9 3.3 -3.4
v -5.9 3.3 -6.7
v -5.9 3.3 -6.9
v -4.7 3.3 -8.9
v -4.7 3.3 -9
v -4.7 3.5 -8.9
v -4.7 3.5 -9
v -4.4 0.4 9
v -4.4 0.4 7.2
v -4.4 0.5 9
v -4.4 0.5 7.2
v -4.4 0.5 -8.9
v -4.4 0.6 -3.8
v -4.4 0.6 -4.7
v -4.4 0.6 -4.8
v -4.4 0.6 -5.8
v -4.4 0.6 -5.9
v -4.4 0.6 -6.9
v -4.4 0.6 -7.1
v -4.4 0.6 -7.9
v -4.4 0.6 -8
v -4.4 0.6 -8.8
v -4.4 2.3 -3.8
v -4.4 2.3 -4.7
v -4.4 2.3 -4.8
v -4.4 2.3 -5.8
v -4.4 2.3 -5.9
v -4.4 2.3 -6.9
v -4.4 2.3 -7.1
v -4.4 2.3 -7.9
v -4.4 2.3 -8
v -4.4 2.3 -8.8
v -4.4 2.4 -3.8
v -4.4 2.4 -6.9
v -4.4 2.4 -7.1
v -4.4 2.4 -8.8
v -4.4 3 -3.8
v -4.4 3 -6.9
v -4.4 3 -7.1
v -4.4 3 -8.8
v -4.4 3.3 -8.9
v -4.4 3.9 8.5
v -4.4 3.9 -8.8
v -4.4 9 8.5
v -4.4 9 -8.8
v -4.4 9.5 9
v -4.4 9.5 -8.9
v -4.3 0.9 -8.9
v -4.3 0.9 -9
v -4.3 3.3 -8.9
v -4.3 3.3 -9
v -4.2 0.5 -8.9
v -4.2 0.5 -9
v -4.2 0.9 -8.9
v -4.2 0.9 -9
v -3.7 0.4 1.7
v -3.7 0.4 -2.1
v -3.7 0.5 1.7
v -3.7 0.5 -2.1
v 2.7 0.4 7.8
v 2.7 0.4 7.7
v 2.7 0.5 7.8
v 2.7 0.5 7.7
v 2.9 0.5 8.9
v 2.9 0.5 7.8
v 2.9 0.5 7.7
v 2.9 0.6 9
v 2.9 0.6 8.9
v 2.9 4.4 9
v 2.9 4.4 7.7
v 6.3 0.4 7.8
v 6.3 0.4 -0.599999
v 6.3 0.5 9
v 6.3 0.5 7.8
v 6.3 0.5 7.7
v 6.3 0.5 -0.599999
v 6.3 4.4 9
v 6.3 4.4 7.7
v 7.5 0 9
v 7.5 0 -9
v 7.5 0.5 9
v 7.5 0.5 -9
v -7.6 0.3 9
v -7.6 0.5 9
v -7.5 0 9
v -7.5 0.3 9
v -7.3 0.4 9
v -7.3 0.5 9
v -7 0.4 9
v -7 0.5 9
v -6.2 3.3 9
v -6.2 3.5 9
v -4.6 8.3 9
v -4.6 8.5 9
v -4.5 0.5 9
v -4.5 3.3 9
v -4.5 3.5 9
v -4.5 8.3 9
v -4.5 8.5 9
v -4.5 9.5 9
v -4.4 0.4 9
v -4.4 0.5 9
v -4.4 9.5 9
v -3.5 0.4 9
v -3.5 0.5 9
v 1.5 0.6 9
v 1.5 4.4 9
v 2.9 0.6 9
v 2.9 4.4 9
v 5 0.5 9
v 5 4.4 9
v 6.3 0.5 9
v 6.3 4.4 9
v 7.5 0 9
v 7.5 0.5 9
v 1.5 0.5 8.9
v 1.5 0.6 8.9
v 2.9 0.5 8.9
v 2.9 0.6 8.9
v 2.7 0.4 7.7
v 2.7 0.5 7.7
v 2.9 0.5 7.7
v 5 0.4 7.7
v 5 0.5 7.7
v -4.4 0.4 7.2
v -4.4 0.5 7.2
v -3.5 0.4 7.2
v -3.5 0.5 7.2
v -6.1 0.5 7
v -6.1 3.3 7
v -5.9 0.5 7
v -5.9 3.3 7
v -6.1 0.5 3.6
v -6.1 3.3 3.6
v -5.9 0.5 3.6
v -5.9 3.3 3.6
v -6.1 0.5 0.3
v -6.1 3.3 0.3
v -5.9 0.5 0.3
v -5.9 3.3 0.3
v 6.3 0.4 -0.599999
v 6.3 0.5 -0.599999
v 6.5 0.4 -0.599999
v 6.5 0.5 -0.599999
v -3 0.4 -1.2
v -3 0.5 -1.2
v 1.4 0.4 -1.2
v 1.4 0.5 -1.2
v -3.7 0.4 -2.1
v -3.7 0.5 -2.1
v -3 0.4 -2.1
v -3 0.5 -2.1
v -6.1 0.5 -3.2
v -6.1 3.3 -3.2
v -5.9 0.5 -3.2
v -5.9 3.3 -3.2
v -6.1 0.5 -6.7
v -6.1 3.3 -6.7
v -5.9 0.5 -6.7
v -5.9 3.3 -6.7
v -4.4 0.5 -8.9
v -4.4 3.3 -8.9
v -4.3 0.9 -8.9
v -4.3 3.3 -8.9
v -4.2 0.5 -8.9
v -4.2 0.9 -8.9
v 2.7 0.4 7.8
v 2.7 0.5 7.8
v 2.9 0.5 7.8
v 5 0.4 7.8
v 5 0.5 7.8
v 6.3 0.4 7.8
v 6.3 0.5 7.8
v 6.5 0.4 7.8
v 6.5 0.5 7.8
v 1.5 0.5 7.7
v 1.5 4.4 7.7
v 2.9 0.5 7.7
v 2.9 4.4 7.7
v 5 0.5 7.7
v 5 4.4 7.7
v 6.3 0.5 7.7
v 6.3 4.4 7.7
v -6.1 0.5 6.8
v -6.1 3.3 6.8
v -5.9 0.5 6.8
v -5.9 3.3 6.8
v -6.1 0.5 3.4
v -6.1 3.3 3.4
v -5.9 0.5 3.4
v -5.9 3.3 3.4
v -3.7 0.4 1.7
v -3.7 0.5 1.7
v 1.4 0.4 1.7
v 1.4 0.5 1.7
v -6.1 0.5 0.1
v -6.1 3.3 0.1
v -5.9 0.5 0.1
v -5.9 3.3 0.1
v -6.1 0.5 -3.4
v -6.1 3.3 -3.4
v -5.9 0.5 -3.4
v -5.9 3.3 -3.4
v -6.1 0.5 -6.9
v -6.1 3.3 -6.9
v -5.9 0.5 -6.9
v -5.9 3.3 -6.9
v -4.7 3.3 -8.9
v -4.7 3.5 -8.9
v -4.6 8.3 -8.9
v -4.6 8.5 -8.9
v -4.5 3.3 -8.9
v -4.5 3.5 -8.9
v -4.5 8.3 -8.9
v -4.5 8.5 -8.9
v -4.5 9.5 -8.9
v -4.4 3.3 -8.9
v -4.4 9.5 -8.9
v -7.6 0.3 -9
v -7.6 0.5 -9
v -7.5 0 -9
v -7.5 0.3 -9
v -7.3 0.4 -9
v -7.3 0.5 -9
v -7 0.4 -9
v -7 0.5 -9
v -6.2 3.3 -9
v -6.2 3.5 -9
v -5.2 0 -9
v -5.2 0.2 -9
v -5 0 -9
v -5 0.2 -9
v -4.7 3.3 -9
v -4.7 3.5 -9
v -4.5 0.5 -9
v -4.5 3.3 -9
v -4.3 0.9 -9
v -4.3 3.3 -9
v -4.2 0.5 -9
v -4.2 0.9 -9
v 7.5 0 -9
v 7.5 0.5 -9
v -7.5 0 9
v 7.5 0 9
v -7.4 0 8.9
v -5 0 8.9
v -5.6 0 -8.2
v -5 0 -8.2
v -5.8 0 -8.3
v -5.6 0 -8.3
v -5.2 0 -8.3
v -7.4 0 -8.9
v -5.8 0 -8.9
v -7.5 0 -9
v -5.2 0 -9
v -5 0 -9
v 7.5 0 -9
v -7.6 0.3 9
v -7.5 0.3 9
v -7.6 0.3 -9
v -7.5 0.3 -9
v 2.7 0.5 7.8
v 2.9 0.5 7.8
v 2.7 0.5 7.7
v 2.9 0.5 7.7
v 1.5 0.6 9
v 2.9 0.6 9
v 1.5 0.6 8.9
v 2.9 0.6 8.9
v -6.2 3.3 9
v -4.5 3.3 9
v -6.1 3.3 7
v -5.9 3.3 7
v -6.1 3.3 6.8
v -5.9 3.3 6.8
v -6.1 3.3 3.6
v -5.9 3.3 3.6
v -6.1 3.3 3.4
v -5.9 3.3 3.4
v -6.1 3.3 0.3
v -5.9 3.3 0.3
v -6.1 3.3 0.1
v -5.9 3.3 0.1
v -6.1 3.3 -3.2
v -5.9 3.3 -3.2
v -6.1 3.3 -3.4
v -5.9 3.3 -3.4
v -6.1 3.3 -6.7
v -5.9 3.3 -6.7
v -6.1 3.3 -6.9
v -5.9 3.3 -6.9
v -4.7 3.3 -8.9
v -4.5 3.3 -8.9
v -6.2 3.3 -9
v -4.7 3.3 -9
v -4.6 8.3 9
v -4.5 8.3 9
v -4.5 8.3 8.5
v -4.5 8.3 -8.8
v -4.6 8.3 -8.9
v -4.5 8.3 -8.9
v -4.4 0.4 9
v -3.5 0.4 9
v 2.7 0.4 7.8
v 5 0.4 7.8
v 6.3 0.4 7.8
v 6.5 0.4 7.8
v 2.7 0.4 7.7
v 5 0.4 7.7
v -4.4 0.4 7.2
v -3.5 0.4 7.2
v -3.7 0.4 1.7
v 1.4 0.4 1.7
v 6.3 0.4 -0.599999
v 6.5 0.4 -0.599999
v -3 0.4 -1.2
v 1.4 0.4 -1.2
v -3.7 0.4 -2.1
v -3 0.4 -2.1
v -7.6 0.5 9
v -7.3 0.5 9
v -7 0.5 9
v -4.5 0.5 9
v -3.5 0.5 9
v 5 0.5 9
v 6.3 0.5 9
v 7.5 0.5 9
v 1.5 0.5 8.9
v 2.9 0.5 8.9
v 2.9 0.5 7.8
v 5 0.5 7.8
v 6.3 0.5 7.8
v 6.5 0.5 7.8
v 1.5 0.5 7.7
v 2.9 0.5 7.7
v 5 0.5 7.7
v 6.3 0.5 7.7
v -4.4 0.5 7.2
v -3.5 0.5 7.2
v -6.1 0.5 7
v -5.9 0.5 7
v -6.1 0.5 6.8
v -5.9 0.5 6.8
v -6.1 0.5 3.6
v -5.9 0.5 3.6
v -6.1 0.5 3.4
v -5.9 0.5 3.4
v -3.7 0.5 1.7
v 1.4 0.5 1.7
v -6.1 0.5 0.3
v -5.9 0.5 0.3
v -6.1 0.5 0.1
v -5.9 0.5 0.1
v 6.3 0.5 -0.599999
v 6.5 0.5 -0.599999
v -3 0.5 -1.2
v 1.4 0.5 -1.2
v -3.7 0.5 -2.1
v -3 0.5 -2.1
v -6.1 0.5 -3.2
v -5.9 0.5 -3.2
v -6.1 0.5 -3.4
v -5.9 0.5 -3.4
v -6.1 0.5 -6.7
v -5.9 0.5 -6.7
v -6.1 0.5 -6.9
v -5.9 0.5 -6.9
v -4.4 0.5 -8.9
v -4.2 0.5 -8.9
v -7.6 0.5 -9
v -7.3 0.5 -9
v -7 0.5 -9
v -4.5 0.5 -9
v -4.2 0.5 -9
v 7.5 0.5 -9
v -4.3 0.9 -8.9
v -4.2 0.9 -8.9
v -4.3 0.9 -9
v -4.2 0.9 -9
v -4.5 3.3 -8.9
v -4.4 3.3 -8.9
v -4.3 3.3 -8.9
v -4.5 3.3 -9
v -4.3 3.3 -9
v -6.2 3.5 9
v -4.5 3.5 9
v -4.7 3.5 -8.9
v -4.5 3.5 -8.9
v -6.2 3.5 -9
v -4.7 3.5 -9
v 1.5 4.4 9
v 2.9 4.4 9
v 5 4.4 9
v 6.3 4.4 9
v 1.5 4.4 7.7
v 2.9 4.4 7.7
v 5 4.4 7.7
v 6.3 4.4 7.7
v -4.6 8.5 9
v -4.5 8.5 9
v -4.5 8.5 8.5
v -4.5 8.5 -8.8
v -4.6 8.5 -8.9
v -4.5 8.5 -8.9
v -4.5 9.5 9
v -4.4 9.5 9
v -4.5 9.5 -8.9
v -4.4 9.5 -8.9

# faces
f 3/8/1 2/8/1 1/8/1
f 4/8/1 2/8/1 3/8/1
f 7/8/1 6/8/1 5/8/1
f 8/8/1 6/8/1 7/8/1
f 11/1/1 10/1/1 9/1/1
f 12/1/1 10/1/1 11/1/1
f 23/1/1 14/1/1 13/1/1
f 24/1/1 14/1/1 23/1/1
f 25/1/1 16/1/1 15/1/1
f 26/1/1 16/1/1 25/1/1
f 27/1/1 18/1/1 17/1/1
f 28/1/1 18/1/1 27/1/1
f 29/1/1 20/1/1 19/1/1
f 30/1/1 20/1/1 29/1/1
f 31/1/1 22/1/1 21/1/1
f 32/1/1 22/1/1 31/1/1
f 35/6/1 34/6/1 33/6/1
f 36/6/1 34/6/1 35/6/1
f 39/5/1 38/5/1 37/5/1
f 40/5/1 38/5/1 39/5/1
f 41/5/1 38/5/1 40/5/1
f 42/5/1 38/5/1 41/5/1
f 43/5/1 38/5/1 42/5/1
f 44/5/1 38/5/1 43/5/1
f 45/5/1 38/5/1 44/5/1
f 46/5/1 38/5/1 45/5/1
f 47/5/1 38/5/1 46/5/1
f 48/5/1 38/5/1 47/5/1
f 49/5/1 39/5/1 37/5/1
f 49/4/1 40/4/1 39/4/1
f 50/5/1 41/5/1 40/5/1
f 50/4/1 40/4/1 49/4/1
f 51/4/1 42/4/1 41/4/1
f 51/5/1 41/5/1 50/5/1
f 52/5/1 43/5/1 42/5/1
f 52/4/1 42/4/1 51/4/1
f 53/4/1 44/4/1 43/4/1
f 53/5/1 43/5/1 52/5/1
f 54/5/1 45/5/1 44/5/1
f 54/4/1 44/4/1 53/4/1
f 55/4/1 46/4/1 45/4/1
f 55/5/1 45/5/1 54/5/1
f 56/5/1 47/5/1 46/5/1
f 56/4/1 46/4/1 55/4/1
f 57/4/1 48/4/1 47/4/1
f 57/5/1 47/5/1 56/5/1
f 58/5/1 38/5/1 48/5/1
f 58/4/1 48/4/1 57/4/1
f 59/5/1 57/5/1 56/5/1
f 59/5/1 56/5/1 55/5/1
f 59/5/1 58/5/1 57/5/1
f 59/5/1 55/5/1 54/5/1
f 59/5/1 54/5/1 53/5/1
f 59/5/1 53/5/1 52/5/1
f 59/5/1 52/5/1 51/5/1
f 59/5/1 51/5/1 50/5/1
f 59/5/1 50/5/1 49/5/1
f 59/5/1 49/5/1 37/5/1
f 60/5/1 58/5/1 59/5/1
f 61/5/1 58/5/1 60/5/1
f 62/5/1 38/5/1 58/5/1
f 62/5/1 58/5/1 61/5/1
f 63/5/1 59/5/1 37/5/1
f 63/4/1 60/4/1 59/4/1
f 64/5/1 61/5/1 60/5/1
f 64/4/1 60/4/1 63/4/1
f 65/4/1 62/4/1 61/4/1
f 65/5/1 61/5/1 64/5/1
f 66/5/1 38/5/1 62/5/1
f 66/4/1 62/4/1 65/4/1
f 67/5/1 63/5/1 37/5/1
f 67/5/1 65/5/1 64/5/1
f 67/5/1 66/5/1 65/5/1
f 67/5/1 64/5/1 63/5/1
f 68/5/1 38/5/1 66/5/1
f 68/5/1 66/5/1 67/5/1
f 69/5/1 38/5/1 68/5/1
f 72/5/1 71/5/1 70/5/1
f 73/5/1 71/5/1 72/5/1
f 74/5/1 72/5/1 70/5/1
f 75/3/1 73/3/1 72/3/1
f 75/5/1 72/5/1 74/5/1
f 76/5/1 71/5/1 73/5/1
f 76/3/1 73/3/1 75/3/1
f 77/5/1 71/5/1 76/5/1
f 82/5/1 79/5/1 78/5/1
f 82/3/1 80/3/1 79/3/1
f 83/5/1 81/5/1 80/5/1
f 83/3/1 80/3/1 82/3/1
f 84/5/1 82/5/1 78/5/1
f 84/5/1 83/5/1 82/5/1
f 85/5/1 81/5/1 83/5/1
f 85/5/1 83/5/1 84/5/1
f 88/8/1 87/8/1 86/8/1
f 89/8/1 87/8/1 88/8/1
f 92/8/1 91/8/1 90/8/1
f 93/8/1 91/8/1 92/8/1
f 96/8/1 95/8/1 94/8/1
f 97/8/1 95/8/1 96/8/1
f 101/3/1 99/3/1 98/3/1
f 102/3/1 101/3/1 100/3/1
f 103/3/1 99/3/1 101/3/1
f 103/3/1 101/3/1 102/3/1
f 107/8/1 105/8/1 104/8/1
f 108/8/1 105/8/1 107/8/1
f 109/3/1 107/3/1 106/3/1
f 109/3/1 108/3/1 107/3/1
f 110/3/1 108/3/1 109/3/1
f 113/8/1 112/8/1 111/8/1
f 114/8/1 112/8/1 113/8/1
f 115/1/2 116/1/2 125/1/2
f 125/1/2 116/1/2 126/1/2
f 117/1/2 118/1/2 127/1/2
f 127/1/2 118/1/2 128/1/2
f 119/1/2 120/1/2 129/1/2
f 129/1/2 120/1/2 130/1/2
f 121/1/2 122/1/2 131/1/2
f 131/1/2 122/1/2 132/1/2
f 123/1/2 124/1/2 133/1/2
f 133/1/2 124/1/2 134/1/2
f 135/1/2 136/1/2 137/1/2
f 137/1/2 136/1/2 138/1/2
f 139/8/2 140/8/2 141/8/2
f 141/8/2 140/8/2 142/8/2
f 141/5/2 142/5/2 144/5/2
f 142/5/2 143/5/2 144/5/2
f 144/5/2 143/5/2 145/5/2
f 145/5/2 143/5/2 146/5/2
f 146/5/2 143/5/2 147/5/2
f 147/5/2 143/5/2 148/5/2
f 148/5/2 143/5/2 149/5/2
f 149/5/2 143/5/2 150/5/2
f 150/5/2 143/5/2 151/5/2
f 151/5/2 143/5/2 152/5/2
f 152/5/2 143/5/2 153/5/2
f 141/5/2 144/5/2 154/5/2
f 144/4/2 145/4/2 154/4/2
f 145/5/2 146/5/2 155/5/2
f 154/4/2 145/4/2 155/4/2
f 146/4/2 147/4/2 156/4/2
f 155/5/2 146/5/2 156/5/2
f 147/5/2 148/5/2 157/5/2
f 156/4/2 147/4/2 157/4/2
f 148/4/2 149/4/2 158/4/2
f 157/5/2 148/5/2 158/5/2
f 149/5/2 150/5/2 159/5/2
f 158/4/2 149/4/2 159/4/2
f 150/4/2 151/4/2 160/4/2
f 159/5/2 150/5/2 160/5/2
f 151/5/2 152/5/2 161/5/2
f 160/4/2 151/4/2 161/4/2
f 152/4/2 153/4/2 162/4/2
f 161/5/2 152/5/2 162/5/2
f 153/5/2 143/5/2 163/5/2
f 162/4/2 153/4/2 163/4/2
f 161/5/2 162/5/2 164/5/2
f 160/5/2 161/5/2 164/5/2
f 162/5/2 163/5/2 164/5/2
f 159/5/2 160/5/2 164/5/2
f 158/5/2 159/5/2 164/5/2
f 157/5/2 158/5/2 164/5/2
f 156/5/2 157/5/2 164/5/2
f 155/5/2 156/5/2 164/5/2
f 154/5/2 155/5/2 164/5/2
f 141/5/2 154/5/2 164/5/2
f 164/5/2 163/5/2 165/5/2
f 165/5/2 163/5/2 166/5/2
f 163/5/2 143/5/2 167/5/2
f 166/5/2 163/5/2 167/5/2
f 141/5/2 164/5/2 168/5/2
f 164/4/2 165/4/2 168/4/2
f 165/5/2 166/5/2 169/5/2
f 168/4/2 165/4/2 169/4/2
f 166/4/2 167/4/2 170/4/2
f 169/5/2 166/5/2 170/5/2
f 167/5/2 143/5/2 171/5/2
f 170/4/2 167/4/2 171/4/2
f 169/5/2 170/5/2 172/5/2
f 171/5/2 143/5/2 172/5/2
f 170/5/2 171/5/2 172/5/2
f 168/5/2 169/5/2 172/5/2
f 141/5/2 168/5/2 173/5/2
f 168/5/2 172/5/2 173/5/2
f 173/5/2 172/5/2 174/5/2
f 141/5/2 173/5/2 175/5/2
f 173/3/2 174/3/2 175/3/2
f 174/5/2 172/5/2 176/5/2
f 175/3/2 174/3/2 176/3/2
f 141/5/2 175/5/2 177/5/2
f 175/5/2 176/5/2 177/5/2
f 176/5/2 172/5/2 178/5/2
f 177/5/2 176/5/2 178/5/2
f 179/5/2 180/5/2 181/5/2
f 181/5/2 180/5/2 182/5/2
f 183/5/2 184/5/2 185/5/2
f 185/5/2 184/5/2 186/5/2
f 187/8/2 188/8/2 189/8/2
f 189/8/2 188/8/2 190/8/2
f 191/8/2 192/8/2 193/8/2
f 193/8/2 192/8/2 194/8/2
f 195/3/2 196/3/2 199/3/2
f 196/3/2 197/3/2 199/3/2
f 198/3/2 199/3/2 200/3/2
f 199/3/2 197/3/2 201/3/2
f 200/3/2 199/3/2 201/3/2
f 202/8/2 203/8/2 205/8/2
f 205/8/2 203/8/2 206/8/2
f 206/8/2 203/8/2 207/8/2
f 204/3/2 205/3/2 208/3/2
f 205/3/2 206/3/2 208/3/2
f 208/3/2 206/3/2 209/3/2
f 210/8/2 211/8/2 212/8/2
f 212/8/2 211/8/2 213/8/2
f 217/8/3 215/8/3 214/8/3
f 218/8/3 215/8/3 217/8/3
f 218/8/3 217/8/3 216/8/3
f 219/8/3 215/8/3 218/8/3
f 220/8/3 218/8/3 216/8/3
f 220/2/3 219/2/3 218/2/3
f 221/2/3 219/2/3 220/2/3
f 226/8/3 221/8/3 220/8/3
f 227/1/3 223/1/3 222/1/3
f 228/1/3 223/1/3 227/1/3
f 229/6/3 225/6/3 224/6/3
f 230/6/3 225/6/3 229/6/3
f 232/8/3 220/8/3 216/8/3
f 232/8/3 226/8/3 220/8/3
f 233/5/3 228/5/3 227/5/3
f 233/8/3 226/8/3 232/8/3
f 233/5/3 231/5/3 230/5/3
f 233/5/3 229/5/3 228/5/3
f 233/5/3 230/5/3 229/5/3
f 233/5/3 227/5/3 226/5/3
f 234/5/3 231/5/3 233/5/3
f 235/8/3 232/8/3 216/8/3
f 239/3/3 238/3/3 237/3/3
f 240/3/3 238/3/3 239/3/3
f 241/8/3 236/8/3 235/8/3
f 243/8/3 241/8/3 235/8/3
f 243/3/3 242/3/3 241/3/3
f 244/3/3 242/3/3 243/3/3
f 245/8/3 235/8/3 216/8/3
f 245/8/3 243/8/3 235/8/3
f 246/8/3 243/8/3 245/8/3
f 249/3/3 248/3/3 247/3/3
f 250/3/3 248/3/3 249/3/3
f 253/8/3 252/8/3 251/8/3
f 254/8/3 253/8/3 251/8/3
f 255/8/3 253/8/3 254/8/3
f 258/8/3 257/8/3 256/8/3
f 259/8/3 257/8/3 258/8/3
f 262/1/3 261/1/3 260/1/3
f 263/1/3 261/1/3 262/1/3
f 266/1/3 265/1/3 264/1/3
f 267/1/3 265/1/3 266/1/3
f 270/1/3 269/1/3 268/1/3
f 271/1/3 269/1/3 270/1/3
f 274/8/3 273/8/3 272/8/3
f 275/8/3 273/8/3 274/8/3
f 278/8/3 277/8/3 276/8/3
f 279/8/3 277/8/3 278/8/3
f 282/8/3 281/8/3 280/8/3
f 283/8/3 281/8/3 282/8/3
f 286/1/3 285/1/3 284/1/3
f 287/1/3 285/1/3 286/1/3
f 290/1/3 289/1/3 288/1/3
f 291/1/3 289/1/3 290/1/3
f 294/5/3 293/5/3 292/5/3
f 295/5/3 293/5/3 294/5/3
f 296/5/3 294/5/3 292/5/3
f 297/5/3 294/5/3 296/5/3
f 298/8/4 299/8/4 300/8/4
f 298/8/4 300/8/4 301/8/4
f 301/8/4 300/8/4 302/8/4
f 303/8/4 304/8/4 305/8/4
f 305/8/4 304/8/4 306/8/4
f 307/3/4 308/3/4 309/3/4
f 309/3/4 308/3/4 310/3/4
f 311/3/4 312/3/4 313/3/4
f 313/3/4 312/3/4 314/3/4
f 315/1/4 316/1/4 317/1/4
f 317/1/4 316/1/4 318/1/4
f 319/1/4 320/1/4 321/1/4
f 321/1/4 320/1/4 322/1/4
f 323/8/4 324/8/4 325/8/4
f 325/8/4 324/8/4 326/8/4
f 327/1/4 328/1/4 329/1/4
f 329/1/4 328/1/4 330/1/4
f 331/1/4 332/1/4 333/1/4
f 333/1/4 332/1/4 334/1/4
f 335/1/4 336/1/4 337/1/4
f 337/1/4 336/1/4 338/1/4
f 339/1/4 340/1/4 343/1/4
f 343/1/4 340/1/4 344/1/4
f 341/6/4 342/6/4 345/6/4
f 345/6/4 342/6/4 346/6/4
f 343/5/4 344/5/4 348/5/4
f 346/5/4 347/5/4 348/5/4
f 345/5/4 346/5/4 348/5/4
f 344/5/4 345/5/4 348/5/4
f 348/5/4 347/5/4 349/5/4
f 350/8/4 351/8/4 353/8/4
f 353/8/4 351/8/4 354/8/4
f 352/8/4 353/8/4 354/8/4
f 354/8/4 351/8/4 355/8/4
f 352/8/4 354/8/4 356/8/4
f 354/2/4 355/2/4 356/2/4
f 356/2/4 355/2/4 357/2/4
f 356/8/4 357/8/4 360/8/4
f 352/8/4 356/8/4 360/8/4
f 360/8/4 357/8/4 361/8/4
f 360/7/4 361/7/4 362/7/4
f 361/8/4 357/8/4 363/8/4
f 362/7/4 361/7/4 363/7/4
f 358/1/4 359/1/4 364/1/4
f 364/1/4 359/1/4 365/1/4
f 363/8/4 357/8/4 366/8/4
f 362/8/4 363/8/4 366/8/4
f 366/5/4 367/5/4 368/5/4
f 368/5/4 367/5/4 369/5/4
f 362/8/4 366/8/4 370/8/4
f 366/5/4 368/5/4 370/5/4
f 370/5/4 368/5/4 371/5/4
f 362/8/4 370/8/4 372/8/4
f 372/8/4 370/8/4 373/8/4
f 376/8/5 375/8/5 374/8/5
f 377/8/5 375/8/5 376/8/5
f 378/6/5 377/6/5 376/6/5
f 379/8/5 375/8/5 377/8/5
f 379/6/5 377/6/5 378/6/5
f 380/6/5 378/6/5 376/6/5
f 381/7/5 379/7/5 378/7/5
f 381/6/5 378/6/5 380/6/5
f 382/7/5 379/7/5 381/7/5
f 383/8/5 376/8/5 374/8/5
f 383/6/5 380/6/5 376/6/5
f 384/8/5 382/8/5 381/8/5
f 384/6/5 380/6/5 383/6/5
f 384/8/5 381/8/5 380/8/5
f 385/8/5 383/8/5 374/8/5
f 385/8/5 384/8/5 383/8/5
f 386/7/5 379/7/5 382/7/5
f 386/8/5 384/8/5 385/8/5
f 386/8/5 382/8/5 384/8/5
f 387/8/5 375/8/5 379/8/5
f 387/7/5 379/7/5 386/7/5
f 388/8/5 375/8/5 387/8/5
f 391/8/5 390/8/5 389/8/5
f 392/8/5 390/8/5 391/8/5
f 395/3/5 394/3/5 393/3/5
f 396/3/5 394/3/5 395/3/5
f 399/3/5 398/3/5 397/3/5
f 400/3/5 398/3/5 399/3/5
f 403/1/5 402/1/5 401/1/5
f 404/1/5 402/1/5 403/1/5
f 405/1/5 403/1/5 401/1/5
f 406/1/5 402/1/5 404/1/5
f 407/1/5 405/1/5 401/1/5
f 407/1/5 406/1/5 405/1/5
f 408/1/5 402/1/5 406/1/5
f 408/1/5 406/1/5 407/1/5
f 409/1/5 407/1/5 401/1/5
f 410/1/5 402/1/5 408/1/5
f 411/1/5 409/1/5 401/1/5
f 411/1/5 410/1/5 409/1/5
f 412/1/5 402/1/5 410/1/5
f 412/1/5 410/1/5 411/1/5
f 413/1/5 411/1/5 401/1/5
f 414/1/5 402/1/5 412/1/5
f 415/1/5 413/1/5 401/1/5
f 415/1/5 414/1/5 413/1/5
f 416/1/5 402/1/5 414/1/5
f 416/1/5 414/1/5 415/1/5
f 417/1/5 415/1/5 401/1/5
f 418/1/5 402/1/5 416/1/5
f 419/1/5 417/1/5 401/1/5
f 419/1/5 418/1/5 417/1/5
f 420/1/5 402/1/5 418/1/5
f 420/1/5 418/1/5 419/1/5
f 421/1/5 419/1/5 401/1/5
f 422/1/5 402/1/5 420/1/5
f 423/1/5 402/1/5 422/1/5
f 423/1/5 422/1/5 421/1/5
f 424/1/5 402/1/5 423/1/5
f 425/1/5 421/1/5 401/1/5
f 425/1/5 423/1/5 421/1/5
f 426/1/5 423/1/5 425/1/5
f 429/6/5 428/6/5 427/6/5
f 430/6/5 429/6/5 427/6/5
f 431/6/5 430/6/5 427/6/5
f 432/6/5 430/6/5 431/6/5
f 435/8/6 436/8/6 439/8/6
f 439/8/6 436/8/6 440/8/6
f 433/8/6 434/8/6 441/8/6
f 441/8/6 434/8/6 442/8/6
f 437/8/6 438/8/6 445/8/6
f 445/8/6 438/8/6 446/8/6
f 443/8/6 444/8/6 447/8/6
f 447/8/6 444/8/6 448/8/6
f 443/8/6 447/8/6 449/8/6
f 449/8/6 447/8/6 450/8/6
f 455/8/6 456/8/6 459/8/6
f 459/8/6 456/8/6 460/8/6
f 460/8/6 456/8/6 461/8/6
f 461/8/6 456/8/6 462/8/6
f 457/8/6 458/8/6 463/8/6
f 463/8/6 458/8/6 464/8/6
f 455/8/6 459/8/6 465/8/6
f 455/8/6 465/8/6 470/8/6
f 467/8/6 468/8/6 470/8/6
f 466/8/6 467/8/6 470/8/6
f 465/8/6 466/8/6 470/8/6
f 453/8/6 454/8/6 471/8/6
f 471/8/6 454/8/6 472/8/6
f 453/8/6 471/8/6 473/8/6
f 472/8/6 454/8/6 474/8/6
f 453/8/6 473/8/6 475/8/6
f 473/8/6 474/8/6 475/8/6
f 474/8/6 454/8/6 476/8/6
f 475/8/6 474/8/6 476/8/6
f 453/8/6 475/8/6 477/8/6
f 476/8/6 454/8/6 478/8/6
f 469/8/6 470/8/6 479/8/6
f 470/8/6 468/8/6 480/8/6
f 479/8/6 470/8/6 480/8/6
f 477/8/6 478/8/6 481/8/6
f 453/8/6 477/8/6 481/8/6
f 478/8/6 454/8/6 482/8/6
f 481/8/6 478/8/6 482/8/6
f 453/8/6 481/8/6 483/8/6
f 482/8/6 454/8/6 484/8/6
f 480/8/6 468/8/6 485/8/6
f 464/8/6 458/8/6 486/8/6
f 480/8/6 485/8/6 488/8/6
f 485/8/6 486/8/6 488/8/6
f 469/8/6 479/8/6 489/8/6
f 487/8/6 488/8/6 490/8/6
f 483/8/6 484/8/6 491/8/6
f 453/8/6 483/8/6 491/8/6
f 484/8/6 454/8/6 492/8/6
f 491/8/6 484/8/6 492/8/6
f 453/8/6 491/8/6 493/8/6
f 492/8/6 454/8/6 494/8/6
f 453/8/6 493/8/6 495/8/6
f 493/8/6 494/8/6 495/8/6
f 494/8/6 454/8/6 496/8/6
f 495/8/6 494/8/6 496/8/6
f 453/8/6 495/8/6 497/8/6
f 496/8/6 454/8/6 498/8/6
f 489/8/6 490/8/6 499/8/6
f 469/8/6 489/8/6 499/8/6
f 499/8/6 490/8/6 500/8/6
f 451/8/6 452/8/6 501/8/6
f 452/2/6 453/2/6 502/2/6
f 501/8/6 452/8/6 502/8/6
f 497/8/6 498/8/6 503/8/6
f 502/2/6 453/2/6 503/2/6
f 453/8/6 497/8/6 503/8/6
f 498/8/6 454/8/6 504/8/6
f 503/8/6 498/8/6 504/8/6
f 500/8/6 490/8/6 505/8/6
f 486/8/6 458/8/6 506/8/6
f 505/8/6 490/8/6 506/8/6
f 490/8/6 488/8/6 506/8/6
f 488/8/6 486/8/6 506/8/6
f 507/5/6 508/5/6 509/5/6
f 509/5/6 508/5/6 510/5/6
f 511/5/6 512/5/6 514/5/6
f 512/5/6 513/5/6 514/5/6
f 514/5/6 513/5/6 515/5/6
f 516/1/6 517/1/6 518/1/6
f 518/1/6 517/1/6 519/1/6
f 516/1/6 518/1/6 520/1/6
f 520/1/6 518/1/6 521/1/6
f 522/3/6 523/3/6 526/3/6
f 526/3/6 523/3/6 527/3/6
f 524/3/6 525/3/6 528/3/6
f 528/3/6 525/3/6 529/3/6
f 530/6/6 531/6/6 532/6/6
f 530/6/6 532/6/6 533/6/6
f 530/6/6 533/6/6 534/6/6
f 534/6/6 533/6/6 535/6/6
f 536/5/6 537/5/6 538/5/6
f 538/5/6 537/5/6 539/5/6
