# MagicaVoxel @ Ephtracy

# group
o 

# material
mtllib 1.vox.mtl
usemtl palette

# normals
vn -1 0 0
vn 1 0 0
vn 0 0 1
vn 0 0 -1
vn 0 -1 0
vn 0 1 0

# texcoords
vt 0.341797 0.5
vt 0.853516 0.5
vt 0.966797 0.5

# verts
v -0.8 0 0.1
v -0.8 0 -1.49012e-08
v -0.8 0.7 0.1
v -0.8 0.7 -1.49012e-08
v -0.8 1.6 0.1
v -0.8 1.6 -1.49012e-08
v 0.6 0 0.1
v 0.6 0 -1.49012e-08
v 0.6 0.7 0.1
v 0.6 0.7 -1.49012e-08
v -0.6 0 0.1
v -0.6 0 -1.49012e-08
v -0.6 0.7 0.1
v -0.6 0.7 -1.49012e-08
v 0.8 0 0.1
v 0.8 0 -1.49012e-08
v 0.8 0.7 0.1
v 0.8 0.7 -1.49012e-08
v 0.8 1.6 0.1
v 0.8 1.6 -1.49012e-08
v -0.8 0 0.1
v -0.8 0.7 0.1
v -0.8 1.6 0.1
v -0.6 0 0.1
v -0.6 0.7 0.1
v -0.6 1.6 0.1
v -0.4 0.7 0.1
v -0.4 1.6 0.1
v -0.2 0.7 0.1
v -0.2 1.6 0.1
v 0 0.7 0.1
v 0 1.6 0.1
v 0.2 0.7 0.1
v 0.2 1.6 0.1
v 0.4 0.7 0.1
v 0.4 1.6 0.1
v 0.6 0 0.1
v 0.6 0.7 0.1
v 0.6 1.6 0.1
v 0.8 0 0.1
v 0.8 0.7 0.1
v 0.8 1.6 0.1
v -0.8 0 -1.49012e-08
v -0.8 0.7 -1.49012e-08
v -0.8 1.6 -1.49012e-08
v -0.6 0 -1.49012e-08
v -0.6 0.7 -1.49012e-08
v -0.6 1.6 -1.49012e-08
v -0.4 0.7 -1.49012e-08
v -0.4 1.6 -1.49012e-08
v -0.2 0.7 -1.49012e-08
v -0.2 1.6 -1.49012e-08
v 0 0.7 -1.49012e-08
v 0 1.6 -1.49012e-08
v 0.2 0.7 -1.49012e-08
v 0.2 1.6 -1.49012e-08
v 0.4 0.7 -1.49012e-08
v 0.4 1.6 -1.49012e-08
v 0.6 0 -1.49012e-08
v 0.6 0.7 -1.49012e-08
v 0.6 1.6 -1.49012e-08
v 0.8 0 -1.49012e-08
v 0.8 0.7 -1.49012e-08
v 0.8 1.6 -1.49012e-08
v -0.8 0 0.1
v -0.6 0 0.1
v 0.6 0 0.1
v 0.8 0 0.1
v -0.8 0 -1.49012e-08
v -0.6 0 -1.49012e-08
v 0.6 0 -1.49012e-08
v 0.8 0 -1.49012e-08
v -0.6 0.7 0.1
v -0.4 0.7 0.1
v -0.2 0.7 0.1
v 0 0.7 0.1
v 0.2 0.7 0.1
v 0.4 0.7 0.1
v 0.6 0.7 0.1
v -0.6 0.7 -1.49012e-08
v -0.4 0.7 -1.49012e-08
v -0.2 0.7 -1.49012e-08
v 0 0.7 -1.49012e-08
v 0.2 0.7 -1.49012e-08
v 0.4 0.7 -1.49012e-08
v 0.6 0.7 -1.49012e-08
v -0.8 1.6 0.1
v -0.6 1.6 0.1
v -0.4 1.6 0.1
v -0.2 1.6 0.1
v 0 1.6 0.1
v 0.2 1.6 0.1
v 0.4 1.6 0.1
v 0.6 1.6 0.1
v 0.8 1.6 0.1
v -0.8 1.6 -1.49012e-08
v -0.6 1.6 -1.49012e-08
v -0.4 1.6 -1.49012e-08
v -0.2 1.6 -1.49012e-08
v 0 1.6 -1.49012e-08
v 0.2 1.6 -1.49012e-08
v 0.4 1.6 -1.49012e-08
v 0.6 1.6 -1.49012e-08
v 0.8 1.6 -1.49012e-08

# faces
f 3/1/1 2/1/1 1/1/1
f 4/1/1 2/1/1 3/1/1
f 5/2/1 4/2/1 3/2/1
f 6/2/1 4/2/1 5/2/1
f 9/1/1 8/1/1 7/1/1
f 10/1/1 8/1/1 9/1/1
f 11/1/2 12/1/2 13/1/2
f 13/1/2 12/1/2 14/1/2
f 15/1/2 16/1/2 17/1/2
f 17/1/2 16/1/2 18/1/2
f 17/3/2 18/3/2 19/3/2
f 19/3/2 18/3/2 20/3/2
f 24/1/3 22/1/3 21/1/3
f 25/2/3 23/2/3 22/2/3
f 25/1/3 22/1/3 24/1/3
f 26/2/3 23/2/3 25/2/3
f 27/3/3 26/3/3 25/3/3
f 28/3/3 26/3/3 27/3/3
f 29/2/3 28/2/3 27/2/3
f 30/2/3 28/2/3 29/2/3
f 31/3/3 30/3/3 29/3/3
f 32/3/3 30/3/3 31/3/3
f 33/2/3 32/2/3 31/2/3
f 34/2/3 32/2/3 33/2/3
f 35/3/3 34/3/3 33/3/3
f 36/3/3 34/3/3 35/3/3
f 38/2/3 36/2/3 35/2/3
f 39/2/3 36/2/3 38/2/3
f 40/1/3 38/1/3 37/1/3
f 41/3/3 39/3/3 38/3/3
f 41/1/3 38/1/3 40/1/3
f 42/3/3 39/3/3 41/3/3
f 43/1/4 44/1/4 46/1/4
f 44/2/4 45/2/4 47/2/4
f 46/1/4 44/1/4 47/1/4
f 47/2/4 45/2/4 48/2/4
f 47/3/4 48/3/4 49/3/4
f 49/3/4 48/3/4 50/3/4
f 49/2/4 50/2/4 51/2/4
f 51/2/4 50/2/4 52/2/4
f 51/3/4 52/3/4 53/3/4
f 53/3/4 52/3/4 54/3/4
f 53/2/4 54/2/4 55/2/4
f 55/2/4 54/2/4 56/2/4
f 55/3/4 56/3/4 57/3/4
f 57/3/4 56/3/4 58/3/4
f 57/2/4 58/2/4 60/2/4
f 60/2/4 58/2/4 61/2/4
f 59/1/4 60/1/4 62/1/4
f 60/3/4 61/3/4 63/3/4
f 62/1/4 60/1/4 63/1/4
f 63/3/4 61/3/4 64/3/4
f 69/1/5 66/1/5 65/1/5
f 70/1/5 66/1/5 69/1/5
f 71/1/5 68/1/5 67/1/5
f 72/1/5 68/1/5 71/1/5
f 80/3/5 74/3/5 73/3/5
f 81/2/5 75/2/5 74/2/5
f 81/3/5 74/3/5 80/3/5
f 82/3/5 76/3/5 75/3/5
f 82/2/5 75/2/5 81/2/5
f 83/2/5 77/2/5 76/2/5
f 83/3/5 76/3/5 82/3/5
f 84/3/5 78/3/5 77/3/5
f 84/2/5 77/2/5 83/2/5
f 85/2/5 79/2/5 78/2/5
f 85/3/5 78/3/5 84/3/5
f 86/2/5 79/2/5 85/2/5
f 87/2/6 88/2/6 96/2/6
f 88/3/6 89/3/6 97/3/6
f 96/2/6 88/2/6 97/2/6
f 89/2/6 90/2/6 98/2/6
f 97/3/6 89/3/6 98/3/6
f 90/3/6 91/3/6 99/3/6
f 98/2/6 90/2/6 99/2/6
f 91/2/6 92/2/6 100/2/6
f 99/3/6 91/3/6 100/3/6
f 92/3/6 93/3/6 101/3/6
f 100/2/6 92/2/6 101/2/6
f 93/2/6 94/2/6 102/2/6
f 101/3/6 93/3/6 102/3/6
f 94/3/6 95/3/6 103/3/6
f 102/2/6 94/2/6 103/2/6
f 103/3/6 95/3/6 104/3/6
