# MagicaVoxel @ Ephtracy

# group
o 

# material
mtllib backup.mtl
usemtl palette

# normals
vn -1 0 0
vn 1 0 0
vn 0 0 1
vn 0 0 -1
vn 0 -1 0
vn 0 1 0

# texcoords
vt 0.177734 0.5
vt 0.306641 0.5
vt 0.841797 0.5
vt 0.958984 0.5
vt 0.970703 0.5

# verts
v -4 -1.9 1.2
v -4 -1.9 -1.6
v -4 -1.7 1.2
v -4 -1.7 -1.6
v -4 0.9 0.8
v -4 0.9 0
v -4 5.5 0.8
v -4 5.5 0
v -3.8 -1.7 1
v -3.8 -1.7 -1.6
v -3.8 -1.5 1
v -3.8 -1.5 -1.6
v -3.6 -1.5 0.8
v -3.6 -1.5 -1.4
v -3.6 -1.3 0.8
v -3.6 -1.3 -1.4
v -3.4 -1.3 0.6
v -3.4 -1.3 -1.2
v -3.4 -1.1 0.6
v -3.4 -1.1 -1.2
v -3.4 3.7 1
v -3.4 3.7 0.8
v -3.4 4.9 1
v -3.4 4.9 0.8
v -2.8 -1.1 0
v -2.8 -1.1 -0.6
v -2.8 0.9 0
v -2.8 5.5 0
v -2.8 5.9 0
v -2.8 5.9 -0.6
v 1.8 -1.1 0
v 1.8 -1.1 -0.6
v 1.8 0.9 0
v 1.8 5.5 0
v 1.8 5.9 0
v 1.8 5.9 -0.6
v 2 3.7 1
v 2 3.7 0.8
v 2 4.9 1
v 2 4.9 0.8
v -2 3.7 1
v -2 3.7 0.8
v -2 4.9 1
v -2 4.9 0.8
v -1.4 -1.1 0
v -1.4 -1.1 -0.6
v -1.4 0.9 0
v -1.4 5.5 0
v -1.4 5.9 0
v -1.4 5.9 -0.6
v 3 -1.1 0
v 3 -1.1 -0.6
v 3 0.9 0
v 3 5.5 0
v 3 5.9 0
v 3 5.9 -0.6
v 3.4 -1.3 0.6
v 3.4 -1.3 -1.2
v 3.4 -1.1 0.6
v 3.4 -1.1 -1.2
v 3.4 3.7 1
v 3.4 3.7 0.8
v 3.4 4.9 1
v 3.4 4.9 0.8
v 3.6 -1.5 0.8
v 3.6 -1.5 -1.4
v 3.6 -1.3 0.8
v 3.6 -1.3 -1.4
v 3.8 -1.7 1
v 3.8 -1.7 -1.6
v 3.8 -1.5 1
v 3.8 -1.5 -1.6
v 4 -1.9 1.2
v 4 -1.9 -1.6
v 4 -1.7 1.2
v 4 -1.7 -1.6
v 4 0.9 0.8
v 4 0.9 0
v 4 5.5 0.8
v 4 5.5 0
v -4 -1.9 1.2
v -4 -1.7 1.2
v 4 -1.9 1.2
v 4 -1.7 1.2
v -3.8 -1.7 1
v -3.8 -1.5 1
v -3.4 3.7 1
v -3.4 4.9 1
v -2 3.7 1
v -2 4.9 1
v 2 3.7 1
v 2 4.9 1
v 3.4 3.7 1
v 3.4 4.9 1
v 3.8 -1.7 1
v 3.8 -1.5 1
v -4 0.9 0.8
v -4 5.5 0.8
v -3.6 -1.5 0.8
v -3.6 -1.3 0.8
v -3.4 3.7 0.8
v -3.4 4.9 0.8
v -3.2 0.9 0.8
v -3.2 3.7 0.8
v -3.2 4.9 0.8
v -3.2 5.5 0.8
v -2.6 0.9 0.8
v -2.6 3.7 0.8
v -2.6 4.9 0.8
v -2.6 5.5 0.8
v -2 3.7 0.8
v -2 4.9 0.8
v -1.8 0.9 0.8
v -1.8 5.5 0.8
v -1.2 0.9 0.8
v -1.2 5.5 0.8
v -0.4 0.9 0.8
v -0.4 5.5 0.8
v 0.2 0.9 0.8
v 0.2 5.5 0.8
v 1 0.9 0.8
v 1 5.5 0.8
v 1.8 0.9 0.8
v 1.8 5.5 0.8
v 2 3.7 0.8
v 2 4.9 0.8
v 2.6 0.9 0.8
v 2.6 3.7 0.8
v 2.6 4.9 0.8
v 2.6 5.5 0.8
v 3.2 0.9 0.8
v 3.2 3.7 0.8
v 3.2 4.9 0.8
v 3.2 5.5 0.8
v 3.4 3.7 0.8
v 3.4 4.9 0.8
v 3.6 -1.5 0.8
v 3.6 -1.3 0.8
v 4 0.9 0.8
v 4 5.5 0.8
v -3.4 -1.3 0.6
v -3.4 -1.1 0.6
v 3.4 -1.3 0.6
v 3.4 -1.1 0.6
v -2.8 -1.1 0
v -2.8 0.9 0
v -2.8 5.5 0
v -2.8 5.9 0
v -2.6 5.5 0
v -1.8 5.5 0
v -1.4 -1.1 0
v -1.4 0.9 0
v -1.4 5.5 0
v -1.4 5.9 0
v 1.8 -1.1 0
v 1.8 0.9 0
v 1.8 5.5 0
v 1.8 5.9 0
v 2.6 5.5 0
v 3 -1.1 0
v 3 0.9 0
v 3 5.5 0
v 3 5.9 0
v -4 0.9 0
v -4 5.5 0
v -3.2 0.9 0
v -3.2 5.5 0
v -2.8 0.9 0
v -2.8 5.5 0
v -1.4 0.9 0
v -1.4 5.5 0
v -1.2 5.3 0
v -1.2 5.5 0
v -0.4 5.3 0
v -0.4 5.5 0
v 0.2 5.3 0
v 0.2 5.5 0
v 1 5.3 0
v 1 5.5 0
v 1.8 0.9 0
v 1.8 5.5 0
v 3 0.9 0
v 3 5.5 0
v 3.2 0.9 0
v 3.2 5.5 0
v 4 0.9 0
v 4 5.5 0
v -2.8 -1.1 -0.6
v -2.8 5.9 -0.6
v -1.4 -1.1 -0.6
v -1.4 5.9 -0.6
v 1.8 -1.1 -0.6
v 1.8 5.9 -0.6
v 3 -1.1 -0.6
v 3 5.9 -0.6
v -3.4 -1.3 -1.2
v -3.4 -1.1 -1.2
v 3.4 -1.3 -1.2
v 3.4 -1.1 -1.2
v -3.6 -1.5 -1.4
v -3.6 -1.3 -1.4
v 3.6 -1.5 -1.4
v 3.6 -1.3 -1.4
v -4 -1.9 -1.6
v -4 -1.7 -1.6
v -3.8 -1.7 -1.6
v -3.8 -1.5 -1.6
v 3.8 -1.7 -1.6
v 3.8 -1.5 -1.6
v 4 -1.9 -1.6
v 4 -1.7 -1.6
v -4 -1.9 1.2
v 4 -1.9 1.2
v -3 -1.9 0.4
v 3 -1.9 0.4
v -3 -1.9 -0.6
v 3 -1.9 -0.6
v -4 -1.9 -1.6
v 4 -1.9 -1.6
v -4 0.9 0.8
v -3.2 0.9 0.8
v -2.6 0.9 0.8
v -1.8 0.9 0.8
v -1.2 0.9 0.8
v -0.4 0.9 0.8
v 0.2 0.9 0.8
v 1 0.9 0.8
v 1.8 0.9 0.8
v 2.6 0.9 0.8
v 3.2 0.9 0.8
v 4 0.9 0.8
v -2.6 0.9 0.6
v -1.8 0.9 0.6
v -1.2 0.9 0.6
v -0.4 0.9 0.6
v 0.2 0.9 0.6
v 1 0.9 0.6
v 1.8 0.9 0.6
v 2.6 0.9 0.6
v -4 0.9 0
v -3.2 0.9 0
v -2.8 0.9 0
v -1.4 0.9 0
v 1.8 0.9 0
v 3 0.9 0
v 3.2 0.9 0
v 4 0.9 0
v -3.4 3.7 1
v -2 3.7 1
v 2 3.7 1
v 3.4 3.7 1
v -3.4 3.7 0.8
v -3.2 3.7 0.8
v -2.6 3.7 0.8
v -2 3.7 0.8
v 2 3.7 0.8
v 2.6 3.7 0.8
v 3.2 3.7 0.8
v 3.4 3.7 0.8
v -4 -1.7 1.2
v 4 -1.7 1.2
v -3.8 -1.7 1
v 3.8 -1.7 1
v -4 -1.7 -1.6
v -3.8 -1.7 -1.6
v 3.8 -1.7 -1.6
v 4 -1.7 -1.6
v -3.8 -1.5 1
v 3.8 -1.5 1
v -3.6 -1.5 0.8
v 3.6 -1.5 0.8
v -3.6 -1.5 -1.4
v 3.6 -1.5 -1.4
v -3.8 -1.5 -1.6
v 3.8 -1.5 -1.6
v -3.6 -1.3 0.8
v 3.6 -1.3 0.8
v -3.4 -1.3 0.6
v 3.4 -1.3 0.6
v -3.4 -1.3 -1.2
v 3.4 -1.3 -1.2
v -3.6 -1.3 -1.4
v 3.6 -1.3 -1.4
v -3.4 -1.1 0.6
v 3.4 -1.1 0.6
v -2.8 -1.1 0
v -1.4 -1.1 0
v 1.8 -1.1 0
v 3 -1.1 0
v -2.8 -1.1 -0.6
v -1.4 -1.1 -0.6
v 1.8 -1.1 -0.6
v 3 -1.1 -0.6
v -3.4 -1.1 -1.2
v 3.4 -1.1 -1.2
v -3.4 4.9 1
v -2 4.9 1
v 2 4.9 1
v 3.4 4.9 1
v -3.4 4.9 0.8
v -3.2 4.9 0.8
v -2.6 4.9 0.8
v -2 4.9 0.8
v 2 4.9 0.8
v 2.6 4.9 0.8
v 3.2 4.9 0.8
v 3.4 4.9 0.8
v -4 5.5 0.8
v -3.2 5.5 0.8
v -2.6 5.5 0.8
v -1.8 5.5 0.8
v -1.2 5.5 0.8
v -0.4 5.5 0.8
v 0.2 5.5 0.8
v 1 5.5 0.8
v 1.8 5.5 0.8
v 2.6 5.5 0.8
v 3.2 5.5 0.8
v 4 5.5 0.8
v -4 5.5 0
v -3.2 5.5 0
v -2.8 5.5 0
v -2.6 5.5 0
v -1.8 5.5 0
v -1.4 5.5 0
v -1.2 5.5 0
v -0.4 5.5 0
v 0.2 5.5 0
v 1 5.5 0
v 1.8 5.5 0
v 2.6 5.5 0
v 3 5.5 0
v 3.2 5.5 0
v 4 5.5 0
v -2.8 5.9 0
v -1.4 5.9 0
v 1.8 5.9 0
v 3 5.9 0
v -2.8 5.9 -0.6
v -1.4 5.9 -0.6
v 1.8 5.9 -0.6
v 3 5.9 -0.6

# faces
f 3/5/1 2/5/1 1/5/1
f 4/5/1 2/5/1 3/5/1
f 7/3/1 6/3/1 5/3/1
f 8/3/1 6/3/1 7/3/1
f 11/5/1 10/5/1 9/5/1
f 12/5/1 10/5/1 11/5/1
f 15/5/1 14/5/1 13/5/1
f 16/5/1 14/5/1 15/5/1
f 19/5/1 18/5/1 17/5/1
f 20/5/1 18/5/1 19/5/1
f 23/4/1 22/4/1 21/4/1
f 24/4/1 22/4/1 23/4/1
f 27/1/1 26/1/1 25/1/1
f 28/1/1 26/1/1 27/1/1
f 29/1/1 26/1/1 28/1/1
f 30/1/1 26/1/1 29/1/1
f 33/1/1 32/1/1 31/1/1
f 34/1/1 32/1/1 33/1/1
f 35/1/1 32/1/1 34/1/1
f 36/1/1 32/1/1 35/1/1
f 39/4/1 38/4/1 37/4/1
f 40/4/1 38/4/1 39/4/1
f 41/4/2 42/4/2 43/4/2
f 43/4/2 42/4/2 44/4/2
f 45/1/2 46/1/2 47/1/2
f 47/1/2 46/1/2 48/1/2
f 48/1/2 46/1/2 49/1/2
f 49/1/2 46/1/2 50/1/2
f 51/1/2 52/1/2 53/1/2
f 53/1/2 52/1/2 54/1/2
f 54/1/2 52/1/2 55/1/2
f 55/1/2 52/1/2 56/1/2
f 57/5/2 58/5/2 59/5/2
f 59/5/2 58/5/2 60/5/2
f 61/4/2 62/4/2 63/4/2
f 63/4/2 62/4/2 64/4/2
f 65/5/2 66/5/2 67/5/2
f 67/5/2 66/5/2 68/5/2
f 69/5/2 70/5/2 71/5/2
f 71/5/2 70/5/2 72/5/2
f 73/5/2 74/5/2 75/5/2
f 75/5/2 74/5/2 76/5/2
f 77/3/2 78/3/2 79/3/2
f 79/3/2 78/3/2 80/3/2
f 83/5/3 82/5/3 81/5/3
f 84/5/3 82/5/3 83/5/3
f 89/4/3 88/4/3 87/4/3
f 90/4/3 88/4/3 89/4/3
f 93/4/3 92/4/3 91/4/3
f 94/4/3 92/4/3 93/4/3
f 95/5/3 86/5/3 85/5/3
f 96/5/3 86/5/3 95/5/3
f 101/3/3 98/3/3 97/3/3
f 102/3/3 98/3/3 101/3/3
f 103/3/3 101/3/3 97/3/3
f 104/3/3 101/3/3 103/3/3
f 105/3/3 98/3/3 102/3/3
f 106/3/3 98/3/3 105/3/3
f 107/4/3 104/4/3 103/4/3
f 108/4/3 104/4/3 107/4/3
f 109/4/3 106/4/3 105/4/3
f 110/4/3 106/4/3 109/4/3
f 111/3/3 108/3/3 107/3/3
f 112/3/3 110/3/3 109/3/3
f 113/3/3 111/3/3 107/3/3
f 113/3/3 112/3/3 111/3/3
f 114/3/3 110/3/3 112/3/3
f 114/3/3 112/3/3 113/3/3
f 115/4/3 114/4/3 113/4/3
f 116/4/3 114/4/3 115/4/3
f 117/3/3 116/3/3 115/3/3
f 118/3/3 116/3/3 117/3/3
f 119/4/3 118/4/3 117/4/3
f 120/4/3 118/4/3 119/4/3
f 121/3/3 120/3/3 119/3/3
f 122/3/3 120/3/3 121/3/3
f 123/4/3 122/4/3 121/4/3
f 124/4/3 122/4/3 123/4/3
f 125/3/3 124/3/3 123/3/3
f 126/3/3 124/3/3 125/3/3
f 127/3/3 125/3/3 123/3/3
f 128/3/3 125/3/3 127/3/3
f 129/3/3 124/3/3 126/3/3
f 130/3/3 124/3/3 129/3/3
f 131/4/3 128/4/3 127/4/3
f 132/4/3 128/4/3 131/4/3
f 133/4/3 130/4/3 129/4/3
f 134/4/3 130/4/3 133/4/3
f 135/3/3 132/3/3 131/3/3
f 136/3/3 134/3/3 133/3/3
f 137/5/3 100/5/3 99/5/3
f 138/5/3 100/5/3 137/5/3
f 139/3/3 136/3/3 135/3/3
f 139/3/3 135/3/3 131/3/3
f 140/3/3 134/3/3 136/3/3
f 140/3/3 136/3/3 139/3/3
f 143/5/3 142/5/3 141/5/3
f 144/5/3 142/5/3 143/5/3
f 149/1/3 148/1/3 147/1/3
f 150/1/3 148/1/3 149/1/3
f 151/1/3 146/1/3 145/1/3
f 152/1/3 146/1/3 151/1/3
f 153/1/3 148/1/3 150/1/3
f 154/1/3 148/1/3 153/1/3
f 159/1/3 158/1/3 157/1/3
f 160/1/3 156/1/3 155/1/3
f 161/1/3 156/1/3 160/1/3
f 162/1/3 158/1/3 159/1/3
f 163/1/3 158/1/3 162/1/3
f 164/3/4 165/3/4 166/3/4
f 166/3/4 165/3/4 167/3/4
f 166/4/4 167/4/4 168/4/4
f 168/4/4 167/4/4 169/4/4
f 170/4/4 171/4/4 172/4/4
f 172/4/4 171/4/4 173/4/4
f 170/4/4 172/4/4 174/4/4
f 172/3/4 173/3/4 174/3/4
f 174/3/4 173/3/4 175/3/4
f 170/4/4 174/4/4 176/4/4
f 174/4/4 175/4/4 176/4/4
f 176/4/4 175/4/4 177/4/4
f 170/4/4 176/4/4 178/4/4
f 176/3/4 177/3/4 178/3/4
f 178/3/4 177/3/4 179/3/4
f 170/4/4 178/4/4 180/4/4
f 178/4/4 179/4/4 180/4/4
f 180/4/4 179/4/4 181/4/4
f 182/4/4 183/4/4 184/4/4
f 184/4/4 183/4/4 185/4/4
f 184/3/4 185/3/4 186/3/4
f 186/3/4 185/3/4 187/3/4
f 188/1/4 189/1/4 190/1/4
f 190/1/4 189/1/4 191/1/4
f 192/1/4 193/1/4 194/1/4
f 194/1/4 193/1/4 195/1/4
f 196/5/4 197/5/4 198/5/4
f 198/5/4 197/5/4 199/5/4
f 200/5/4 201/5/4 202/5/4
f 202/5/4 201/5/4 203/5/4
f 204/5/4 205/5/4 206/5/4
f 204/5/4 206/5/4 208/5/4
f 206/5/4 207/5/4 208/5/4
f 208/5/4 207/5/4 209/5/4
f 204/5/4 208/5/4 210/5/4
f 210/5/4 208/5/4 211/5/4
f 214/5/5 213/5/5 212/5/5
f 215/5/5 213/5/5 214/5/5
f 216/5/5 214/5/5 212/5/5
f 216/2/5 215/2/5 214/2/5
f 217/5/5 213/5/5 215/5/5
f 217/2/5 215/2/5 216/2/5
f 218/5/5 216/5/5 212/5/5
f 218/5/5 217/5/5 216/5/5
f 219/5/5 213/5/5 217/5/5
f 219/5/5 217/5/5 218/5/5
f 232/4/5 222/4/5 221/4/5
f 232/3/5 223/3/5 222/3/5
f 233/4/5 224/4/5 223/4/5
f 233/3/5 223/3/5 232/3/5
f 234/3/5 225/3/5 224/3/5
f 234/4/5 224/4/5 233/4/5
f 235/4/5 226/4/5 225/4/5
f 235/3/5 225/3/5 234/3/5
f 236/3/5 227/3/5 226/3/5
f 236/4/5 226/4/5 235/4/5
f 237/4/5 228/4/5 227/4/5
f 237/3/5 227/3/5 236/3/5
f 238/3/5 229/3/5 228/3/5
f 238/4/5 228/4/5 237/4/5
f 239/4/5 230/4/5 229/4/5
f 239/3/5 229/3/5 238/3/5
f 240/3/5 221/3/5 220/3/5
f 241/4/5 238/4/5 237/4/5
f 241/3/5 221/3/5 240/3/5
f 241/4/5 232/4/5 221/4/5
f 241/4/5 239/4/5 238/4/5
f 241/4/5 237/4/5 236/4/5
f 241/4/5 236/4/5 235/4/5
f 241/4/5 235/4/5 234/4/5
f 241/4/5 234/4/5 233/4/5
f 241/4/5 233/4/5 232/4/5
f 242/4/5 239/4/5 241/4/5
f 243/4/5 239/4/5 242/4/5
f 244/4/5 239/4/5 243/4/5
f 245/4/5 230/4/5 239/4/5
f 245/4/5 239/4/5 244/4/5
f 246/3/5 231/3/5 230/3/5
f 246/4/5 230/4/5 245/4/5
f 247/3/5 231/3/5 246/3/5
f 252/4/5 249/4/5 248/4/5
f 253/4/5 249/4/5 252/4/5
f 254/4/5 249/4/5 253/4/5
f 255/4/5 249/4/5 254/4/5
f 256/4/5 251/4/5 250/4/5
f 257/4/5 251/4/5 256/4/5
f 258/4/5 251/4/5 257/4/5
f 259/4/5 251/4/5 258/4/5
f 260/5/6 261/5/6 262/5/6
f 262/5/6 261/5/6 263/5/6
f 260/5/6 262/5/6 264/5/6
f 264/5/6 262/5/6 265/5/6
f 263/5/6 261/5/6 266/5/6
f 266/5/6 261/5/6 267/5/6
f 268/5/6 269/5/6 270/5/6
f 270/5/6 269/5/6 271/5/6
f 268/5/6 270/5/6 272/5/6
f 271/5/6 269/5/6 273/5/6
f 268/5/6 272/5/6 274/5/6
f 272/5/6 273/5/6 274/5/6
f 273/5/6 269/5/6 275/5/6
f 274/5/6 273/5/6 275/5/6
f 276/5/6 277/5/6 278/5/6
f 278/5/6 277/5/6 279/5/6
f 276/5/6 278/5/6 280/5/6
f 279/5/6 277/5/6 281/5/6
f 276/5/6 280/5/6 282/5/6
f 280/5/6 281/5/6 282/5/6
f 281/5/6 277/5/6 283/5/6
f 282/5/6 281/5/6 283/5/6
f 284/5/6 285/5/6 286/5/6
f 286/5/6 285/5/6 287/5/6
f 287/5/6 285/5/6 288/5/6
f 288/5/6 285/5/6 289/5/6
f 284/5/6 286/5/6 290/5/6
f 287/5/6 288/5/6 291/5/6
f 291/5/6 288/5/6 292/5/6
f 289/5/6 285/5/6 293/5/6
f 291/5/6 292/5/6 294/5/6
f 292/5/6 293/5/6 294/5/6
f 284/5/6 290/5/6 294/5/6
f 290/5/6 291/5/6 294/5/6
f 293/5/6 285/5/6 295/5/6
f 294/5/6 293/5/6 295/5/6
f 296/4/6 297/4/6 300/4/6
f 300/4/6 297/4/6 301/4/6
f 301/4/6 297/4/6 302/4/6
f 302/4/6 297/4/6 303/4/6
f 298/4/6 299/4/6 304/4/6
f 304/4/6 299/4/6 305/4/6
f 305/4/6 299/4/6 306/4/6
f 306/4/6 299/4/6 307/4/6
f 308/3/6 309/3/6 320/3/6
f 309/4/6 310/4/6 321/4/6
f 320/3/6 309/3/6 321/3/6
f 321/4/6 310/4/6 322/4/6
f 310/3/6 311/3/6 323/3/6
f 322/4/6 310/4/6 323/4/6
f 311/4/6 312/4/6 324/4/6
f 323/3/6 311/3/6 324/3/6
f 324/4/6 312/4/6 325/4/6
f 312/3/6 313/3/6 326/3/6
f 325/4/6 312/4/6 326/4/6
f 313/4/6 314/4/6 327/4/6
f 326/3/6 313/3/6 327/3/6
f 314/3/6 315/3/6 328/3/6
f 327/4/6 314/4/6 328/4/6
f 315/4/6 316/4/6 329/4/6
f 328/3/6 315/3/6 329/3/6
f 316/3/6 317/3/6 330/3/6
f 329/4/6 316/4/6 330/4/6
f 317/4/6 318/4/6 331/4/6
f 330/3/6 317/3/6 331/3/6
f 331/4/6 318/4/6 332/4/6
f 318/3/6 319/3/6 333/3/6
f 332/4/6 318/4/6 333/4/6
f 333/3/6 319/3/6 334/3/6
f 335/1/6 336/1/6 339/1/6
f 339/1/6 336/1/6 340/1/6
f 337/1/6 338/1/6 341/1/6
f 341/1/6 338/1/6 342/1/6
