# MagicaVoxel @ Ephtracy

# group
o 

# material
mtllib boardLow.mtl
usemtl palette

# normals
vn -1 0 0
vn 1 0 0
vn 0 0 1
vn 0 0 -1
vn 0 -1 0
vn 0 1 0

# texcoords
vt 0.177734 0.5
vt 0.306641 0.5
vt 0.841797 0.5
vt 0.958984 0.5
vt 0.970703 0.5
vt 0.982422 0.5

# verts
v -0.8 0 0.1
v -0.8 0 -0.6
v -0.8 0.1 0.1
v -0.8 0.1 -0.6
v -0.8 0.9 0
v -0.8 0.9 -0.2
v -0.8 1.9 0
v -0.8 1.9 -0.2
v -0.7 0.1 0
v -0.7 0.1 -0.5
v -0.7 0.2 0
v -0.7 0.2 -0.2
v -0.7 0.2 -0.3
v -0.7 0.2 -0.5
v -0.7 0.9 -0.2
v -0.7 1.9 -0.2
v -0.7 2 -0.2
v -0.7 2 -0.3
v 0.4 0.2 -0.2
v 0.4 0.2 -0.3
v 0.4 0.9 -0.2
v 0.4 1.9 -0.2
v 0.4 2 -0.2
v 0.4 2 -0.3
v -0.4 0.2 -0.2
v -0.4 0.2 -0.3
v -0.4 0.9 -0.2
v -0.4 1.9 -0.2
v -0.4 2 -0.2
v -0.4 2 -0.3
v 0.7 0.1 0
v 0.7 0.1 -0.5
v 0.7 0.2 0
v 0.7 0.2 -0.2
v 0.7 0.2 -0.3
v 0.7 0.2 -0.5
v 0.7 0.9 -0.2
v 0.7 1.9 -0.2
v 0.7 2 -0.2
v 0.7 2 -0.3
v 0.8 0 0.1
v 0.8 0 -0.6
v 0.8 0.1 0.1
v 0.8 0.1 -0.6
v 0.8 0.9 0
v 0.8 0.9 -0.2
v 0.8 1.9 0
v 0.8 1.9 -0.2
v -0.8 0 0.1
v -0.8 0.1 0.1
v 0.8 0 0.1
v 0.8 0.1 0.1
v -0.8 0.9 0
v -0.8 1.9 0
v -0.7 0.1 0
v -0.7 0.2 0
v -0.7 0.9 0
v -0.7 1.9 0
v -0.5 0.9 0
v -0.5 1.9 0
v -0.3 0.9 0
v -0.3 1.9 0
v -0.1 0.9 0
v -0.1 1.9 0
v 0.1 0.9 0
v 0.1 1.9 0
v 0.3 0.9 0
v 0.3 1.9 0
v 0.5 0.9 0
v 0.5 1.9 0
v 0.7 0.1 0
v 0.7 0.2 0
v 0.7 0.9 0
v 0.7 1.9 0
v 0.8 0.9 0
v 0.8 1.9 0
v -0.7 0.2 -0.2
v -0.7 0.9 -0.2
v -0.7 1.9 -0.2
v -0.7 2 -0.2
v -0.5 1.9 -0.2
v -0.4 0.2 -0.2
v -0.4 0.9 -0.2
v -0.4 1.9 -0.2
v -0.4 2 -0.2
v 0.4 0.2 -0.2
v 0.4 0.9 -0.2
v 0.4 1.9 -0.2
v 0.4 2 -0.2
v 0.5 1.9 -0.2
v 0.7 0.2 -0.2
v 0.7 0.9 -0.2
v 0.7 1.9 -0.2
v 0.7 2 -0.2
v -0.8 0.9 -0.2
v -0.8 1.9 -0.2
v -0.7 0.9 -0.2
v -0.7 1.9 -0.2
v -0.4 0.9 -0.2
v -0.4 1.9 -0.2
v -0.3 0.9 -0.2
v -0.3 1.9 -0.2
v -0.1 0.9 -0.2
v -0.1 1.9 -0.2
v 0.1 0.9 -0.2
v 0.1 1.9 -0.2
v 0.3 0.9 -0.2
v 0.3 1.9 -0.2
v 0.4 0.9 -0.2
v 0.4 1.9 -0.2
v 0.7 0.9 -0.2
v 0.7 1.9 -0.2
v 0.8 0.9 -0.2
v 0.8 1.9 -0.2
v -0.7 0.2 -0.3
v -0.7 2 -0.3
v -0.4 0.2 -0.3
v -0.4 2 -0.3
v 0.4 0.2 -0.3
v 0.4 2 -0.3
v 0.7 0.2 -0.3
v 0.7 2 -0.3
v -0.7 0.1 -0.5
v -0.7 0.2 -0.5
v 0.7 0.1 -0.5
v 0.7 0.2 -0.5
v -0.8 0 -0.6
v -0.8 0.1 -0.6
v 0.8 0 -0.6
v 0.8 0.1 -0.6
v -0.8 0 0.1
v 0.8 0 0.1
v -0.7 0 0
v -0.2 0 0
v -0.7 0 -0.1
v -0.2 0 -0.1
v 0.7 0 -0.1
v -0.7 0 -0.4
v 0.7 0 -0.4
v -0.7 0 -0.5
v 0.7 0 -0.5
v -0.8 0 -0.6
v 0.8 0 -0.6
v -0.8 0.9 0
v -0.7 0.9 0
v -0.5 0.9 0
v -0.3 0.9 0
v -0.1 0.9 0
v 0.1 0.9 0
v 0.3 0.9 0
v 0.5 0.9 0
v 0.7 0.9 0
v 0.8 0.9 0
v -0.7 0.9 -0.1
v -0.5 0.9 -0.1
v -0.4 0.9 -0.1
v -0.3 0.9 -0.1
v -0.1 0.9 -0.1
v 0.1 0.9 -0.1
v 0.3 0.9 -0.1
v 0.4 0.9 -0.1
v 0.5 0.9 -0.1
v 0.7 0.9 -0.1
v -0.8 0.9 -0.2
v -0.7 0.9 -0.2
v -0.4 0.9 -0.2
v -0.3 0.9 -0.2
v -0.1 0.9 -0.2
v 0.1 0.9 -0.2
v 0.3 0.9 -0.2
v 0.4 0.9 -0.2
v 0.7 0.9 -0.2
v 0.8 0.9 -0.2
v -0.8 0.1 0.1
v 0.8 0.1 0.1
v -0.7 0.1 0
v 0.7 0.1 0
v -0.7 0.1 -0.5
v 0.7 0.1 -0.5
v -0.8 0.1 -0.6
v 0.8 0.1 -0.6
v -0.7 0.2 0
v 0.7 0.2 0
v -0.7 0.2 -0.2
v -0.4 0.2 -0.2
v 0.4 0.2 -0.2
v 0.7 0.2 -0.2
v -0.7 0.2 -0.3
v -0.4 0.2 -0.3
v 0.4 0.2 -0.3
v 0.7 0.2 -0.3
v -0.7 0.2 -0.5
v 0.7 0.2 -0.5
v -0.8 1.9 0
v -0.7 1.9 0
v -0.5 1.9 0
v -0.3 1.9 0
v -0.1 1.9 0
v 0.1 1.9 0
v 0.3 1.9 0
v 0.5 1.9 0
v 0.7 1.9 0
v 0.8 1.9 0
v -0.7 1.9 -0.1
v -0.5 1.9 -0.1
v -0.3 1.9 -0.1
v -0.1 1.9 -0.1
v 0.1 1.9 -0.1
v 0.3 1.9 -0.1
v 0.5 1.9 -0.1
v 0.7 1.9 -0.1
v -0.8 1.9 -0.2
v -0.7 1.9 -0.2
v -0.5 1.9 -0.2
v -0.4 1.9 -0.2
v -0.3 1.9 -0.2
v -0.1 1.9 -0.2
v 0.1 1.9 -0.2
v 0.3 1.9 -0.2
v 0.4 1.9 -0.2
v 0.5 1.9 -0.2
v 0.7 1.9 -0.2
v 0.8 1.9 -0.2
v -0.7 2 -0.2
v -0.4 2 -0.2
v 0.4 2 -0.2
v 0.7 2 -0.2
v -0.7 2 -0.3
v -0.4 2 -0.3
v 0.4 2 -0.3
v 0.7 2 -0.3

# faces
f 3/6/1 2/6/1 1/6/1
f 4/6/1 2/6/1 3/6/1
f 7/3/1 6/3/1 5/3/1
f 8/3/1 6/3/1 7/3/1
f 11/6/1 10/6/1 9/6/1
f 12/6/1 10/6/1 11/6/1
f 13/6/1 10/6/1 12/6/1
f 14/6/1 10/6/1 13/6/1
f 15/1/1 13/1/1 12/1/1
f 16/1/1 13/1/1 15/1/1
f 17/1/1 13/1/1 16/1/1
f 18/1/1 13/1/1 17/1/1
f 21/1/1 20/1/1 19/1/1
f 22/1/1 20/1/1 21/1/1
f 23/1/1 20/1/1 22/1/1
f 24/1/1 20/1/1 23/1/1
f 25/1/2 26/1/2 27/1/2
f 27/1/2 26/1/2 28/1/2
f 28/1/2 26/1/2 29/1/2
f 29/1/2 26/1/2 30/1/2
f 31/6/2 32/6/2 33/6/2
f 33/6/2 32/6/2 34/6/2
f 34/6/2 32/6/2 35/6/2
f 35/6/2 32/6/2 36/6/2
f 34/1/2 35/1/2 37/1/2
f 37/1/2 35/1/2 38/1/2
f 38/1/2 35/1/2 39/1/2
f 39/1/2 35/1/2 40/1/2
f 41/6/2 42/6/2 43/6/2
f 43/6/2 42/6/2 44/6/2
f 45/3/2 46/3/2 47/3/2
f 47/3/2 46/3/2 48/3/2
f 51/6/3 50/6/3 49/6/3
f 52/6/3 50/6/3 51/6/3
f 57/3/3 54/3/3 53/3/3
f 58/3/3 54/3/3 57/3/3
f 59/4/3 58/4/3 57/4/3
f 60/4/3 58/4/3 59/4/3
f 61/3/3 60/3/3 59/3/3
f 62/3/3 60/3/3 61/3/3
f 63/4/3 62/4/3 61/4/3
f 64/4/3 62/4/3 63/4/3
f 65/3/3 64/3/3 63/3/3
f 66/3/3 64/3/3 65/3/3
f 67/4/3 66/4/3 65/4/3
f 68/4/3 66/4/3 67/4/3
f 69/3/3 68/3/3 67/3/3
f 70/3/3 68/3/3 69/3/3
f 71/6/3 56/6/3 55/6/3
f 72/6/3 56/6/3 71/6/3
f 73/4/3 70/4/3 69/4/3
f 74/4/3 70/4/3 73/4/3
f 75/3/3 74/3/3 73/3/3
f 76/3/3 74/3/3 75/3/3
f 81/1/3 80/1/3 79/1/3
f 82/1/3 78/1/3 77/1/3
f 83/1/3 78/1/3 82/1/3
f 84/1/3 80/1/3 81/1/3
f 85/1/3 80/1/3 84/1/3
f 90/1/3 89/1/3 88/1/3
f 91/1/3 87/1/3 86/1/3
f 92/1/3 87/1/3 91/1/3
f 93/1/3 89/1/3 90/1/3
f 94/1/3 89/1/3 93/1/3
f 95/3/4 96/3/4 97/3/4
f 97/3/4 96/3/4 98/3/4
f 99/4/4 100/4/4 101/4/4
f 101/4/4 100/4/4 102/4/4
f 101/3/4 102/3/4 103/3/4
f 103/3/4 102/3/4 104/3/4
f 103/4/4 104/4/4 105/4/4
f 105/4/4 104/4/4 106/4/4
f 105/3/4 106/3/4 107/3/4
f 107/3/4 106/3/4 108/3/4
f 107/4/4 108/4/4 109/4/4
f 109/4/4 108/4/4 110/4/4
f 111/3/4 112/3/4 113/3/4
f 113/3/4 112/3/4 114/3/4
f 115/1/4 116/1/4 117/1/4
f 117/1/4 116/1/4 118/1/4
f 119/1/4 120/1/4 121/1/4
f 121/1/4 120/1/4 122/1/4
f 123/6/4 124/6/4 125/6/4
f 125/6/4 124/6/4 126/6/4
f 127/6/4 128/6/4 129/6/4
f 129/6/4 128/6/4 130/6/4
f 133/6/5 132/6/5 131/6/5
f 134/6/5 132/6/5 133/6/5
f 135/6/5 133/6/5 131/6/5
f 135/5/5 134/5/5 133/5/5
f 136/6/5 132/6/5 134/6/5
f 136/5/5 134/5/5 135/5/5
f 137/6/5 132/6/5 136/6/5
f 138/6/5 135/6/5 131/6/5
f 138/2/5 136/2/5 135/2/5
f 138/2/5 137/2/5 136/2/5
f 139/6/5 132/6/5 137/6/5
f 139/2/5 137/2/5 138/2/5
f 140/6/5 138/6/5 131/6/5
f 140/5/5 139/5/5 138/5/5
f 141/6/5 132/6/5 139/6/5
f 141/5/5 139/5/5 140/5/5
f 142/6/5 140/6/5 131/6/5
f 142/6/5 141/6/5 140/6/5
f 143/6/5 132/6/5 141/6/5
f 143/6/5 141/6/5 142/6/5
f 154/3/5 145/3/5 144/3/5
f 154/4/5 146/4/5 145/4/5
f 155/3/5 147/3/5 146/3/5
f 155/4/5 146/4/5 154/4/5
f 156/3/5 147/3/5 155/3/5
f 157/4/5 148/4/5 147/4/5
f 157/3/5 147/3/5 156/3/5
f 158/3/5 149/3/5 148/3/5
f 158/4/5 148/4/5 157/4/5
f 159/4/5 150/4/5 149/4/5
f 159/3/5 149/3/5 158/3/5
f 160/3/5 151/3/5 150/3/5
f 160/4/5 150/4/5 159/4/5
f 161/3/5 151/3/5 160/3/5
f 162/4/5 152/4/5 151/4/5
f 162/3/5 151/3/5 161/3/5
f 163/3/5 153/3/5 152/3/5
f 163/4/5 152/4/5 162/4/5
f 164/3/5 154/3/5 144/3/5
f 165/2/5 156/2/5 155/2/5
f 165/3/5 154/3/5 164/3/5
f 165/2/5 155/2/5 154/2/5
f 166/4/5 157/4/5 156/4/5
f 166/2/5 156/2/5 165/2/5
f 167/3/5 158/3/5 157/3/5
f 167/4/5 157/4/5 166/4/5
f 168/4/5 159/4/5 158/4/5
f 168/3/5 158/3/5 167/3/5
f 169/3/5 160/3/5 159/3/5
f 169/4/5 159/4/5 168/4/5
f 170/4/5 161/4/5 160/4/5
f 170/3/5 160/3/5 169/3/5
f 171/2/5 162/2/5 161/2/5
f 171/4/5 161/4/5 170/4/5
f 171/2/5 163/2/5 162/2/5
f 172/3/5 153/3/5 163/3/5
f 172/2/5 163/2/5 171/2/5
f 173/3/5 153/3/5 172/3/5
f 174/6/6 175/6/6 176/6/6
f 176/6/6 175/6/6 177/6/6
f 174/6/6 176/6/6 178/6/6
f 177/6/6 175/6/6 179/6/6
f 174/6/6 178/6/6 180/6/6
f 178/6/6 179/6/6 180/6/6
f 179/6/6 175/6/6 181/6/6
f 180/6/6 179/6/6 181/6/6
f 182/6/6 183/6/6 184/6/6
f 184/6/6 183/6/6 185/6/6
f 185/6/6 183/6/6 186/6/6
f 186/6/6 183/6/6 187/6/6
f 185/6/6 186/6/6 189/6/6
f 189/6/6 186/6/6 190/6/6
f 188/6/6 189/6/6 192/6/6
f 190/6/6 191/6/6 192/6/6
f 189/6/6 190/6/6 192/6/6
f 192/6/6 191/6/6 193/6/6
f 194/3/6 195/3/6 204/3/6
f 195/4/6 196/4/6 204/4/6
f 196/3/6 197/3/6 205/3/6
f 204/4/6 196/4/6 205/4/6
f 197/4/6 198/4/6 206/4/6
f 205/3/6 197/3/6 206/3/6
f 198/3/6 199/3/6 207/3/6
f 206/4/6 198/4/6 207/4/6
f 199/4/6 200/4/6 208/4/6
f 207/3/6 199/3/6 208/3/6
f 200/3/6 201/3/6 209/3/6
f 208/4/6 200/4/6 209/4/6
f 201/4/6 202/4/6 210/4/6
f 209/3/6 201/3/6 210/3/6
f 202/3/6 203/3/6 211/3/6
f 210/4/6 202/4/6 211/4/6
f 194/3/6 204/3/6 212/3/6
f 204/3/6 205/3/6 212/3/6
f 212/3/6 205/3/6 213/3/6
f 205/4/6 206/4/6 214/4/6
f 213/3/6 205/3/6 214/3/6
f 214/4/6 206/4/6 215/4/6
f 206/3/6 207/3/6 216/3/6
f 215/4/6 206/4/6 216/4/6
f 207/4/6 208/4/6 217/4/6
f 216/3/6 207/3/6 217/3/6
f 208/3/6 209/3/6 218/3/6
f 217/4/6 208/4/6 218/4/6
f 209/4/6 210/4/6 219/4/6
f 218/3/6 209/3/6 219/3/6
f 219/4/6 210/4/6 220/4/6
f 210/3/6 211/3/6 221/3/6
f 220/4/6 210/4/6 221/4/6
f 211/3/6 203/3/6 222/3/6
f 221/3/6 211/3/6 222/3/6
f 222/3/6 203/3/6 223/3/6
f 224/1/6 225/1/6 228/1/6
f 228/1/6 225/1/6 229/1/6
f 226/1/6 227/1/6 230/1/6
f 230/1/6 227/1/6 231/1/6
