# MagicaVoxel @ Ephtracy

# group
o 

# material
mtllib hi.mtl
usemtl palette

# normals
vn -1 0 0
vn 1 0 0
vn 0 0 1
vn 0 0 -1
vn 0 -1 0
vn 0 1 0

# texcoords
vt 0.771484 0.5
vt 0.974609 0.5

# verts
v -2 0 -1.8
v -2 0 -2
v -2 4 -1.8
v -2 4 -2
v -2 8 -1.8
v -2 8 -2
v 1.7 0 -1.8
v 1.7 0 -2
v 1.7 4 -1.8
v 1.7 4 -2
v -1.6 0 -1.8
v -1.6 0 -2
v -1.6 4 -1.8
v -1.6 4 -2
v 2 0 -1.8
v 2 0 -2
v 2 4 -1.8
v 2 4 -2
v 2 8 -1.8
v 2 8 -2
v -2 0 -1.8
v -2 4 -1.8
v -2 8 -1.8
v -1.6 0 -1.8
v -1.6 4 -1.8
v 1.7 0 -1.8
v 1.7 4 -1.8
v 2 0 -1.8
v 2 4 -1.8
v 2 8 -1.8
v -2 0 -2
v -2 4 -2
v -2 8 -2
v -1.6 0 -2
v -1.6 4 -2
v 1.7 0 -2
v 1.7 4 -2
v 2 0 -2
v 2 4 -2
v 2 8 -2
v -2 0 -1.8
v -1.6 0 -1.8
v 1.7 0 -1.8
v 2 0 -1.8
v -2 0 -2
v -1.6 0 -2
v 1.7 0 -2
v 2 0 -2
v -1.6 4 -1.8
v 1.7 4 -1.8
v -1.6 4 -2
v 1.7 4 -2
v -2 8 -1.8
v 2 8 -1.8
v -2 8 -2
v 2 8 -2

# faces
f 3/1/1 2/1/1 1/1/1
f 4/1/1 2/1/1 3/1/1
f 5/2/1 4/2/1 3/2/1
f 6/2/1 4/2/1 5/2/1
f 9/1/1 8/1/1 7/1/1
f 10/1/1 8/1/1 9/1/1
f 11/1/2 12/1/2 13/1/2
f 13/1/2 12/1/2 14/1/2
f 15/1/2 16/1/2 17/1/2
f 17/1/2 16/1/2 18/1/2
f 17/2/2 18/2/2 19/2/2
f 19/2/2 18/2/2 20/2/2
f 24/1/3 22/1/3 21/1/3
f 25/2/3 23/2/3 22/2/3
f 25/1/3 22/1/3 24/1/3
f 27/2/3 23/2/3 25/2/3
f 28/1/3 27/1/3 26/1/3
f 29/2/3 23/2/3 27/2/3
f 29/1/3 27/1/3 28/1/3
f 30/2/3 23/2/3 29/2/3
f 31/1/4 32/1/4 34/1/4
f 32/2/4 33/2/4 35/2/4
f 34/1/4 32/1/4 35/1/4
f 35/2/4 33/2/4 37/2/4
f 36/1/4 37/1/4 38/1/4
f 37/2/4 33/2/4 39/2/4
f 38/1/4 37/1/4 39/1/4
f 39/2/4 33/2/4 40/2/4
f 45/1/5 42/1/5 41/1/5
f 46/1/5 42/1/5 45/1/5
f 47/1/5 44/1/5 43/1/5
f 48/1/5 44/1/5 47/1/5
f 51/2/5 50/2/5 49/2/5
f 52/2/5 50/2/5 51/2/5
f 53/2/6 54/2/6 55/2/6
f 55/2/6 54/2/6 56/2/6
