# MagicaVoxel @ Ephtracy

# group
o 

# material
mtllib untitled.mtl
usemtl palette

# normals
vn -1 0 0
vn 1 0 0
vn 0 0 1
vn 0 0 -1
vn 0 -1 0
vn 0 1 0

# texcoords
vt 0.0566406 0.5
vt 0.115234 0.5
vt 0.248047 0.5
vt 0.306641 0.5
vt 0.537109 0.5
vt 0.701172 0.5
vt 0.779297 0.5
vt 0.810547 0.5
vt 0.857422 0.5

# verts
v -0.1 1.5 0.1
v -0.1 1.5 -0.2
v -0.1 1.9 0.1
v -0.1 1.9 -0.2
v 1.49012e-08 0 0.2
v 1.49012e-08 0 0.1
v 1.49012e-08 0 -0.2
v 1.49012e-08 0 -0.3
v 1.49012e-08 0.2 0.2
v 1.49012e-08 0.2 0.1
v 1.49012e-08 0.2 -0.2
v 1.49012e-08 0.2 -0.3
v 1.49012e-08 0.4 0.2
v 1.49012e-08 0.4 0.1
v 1.49012e-08 0.4 -0.2
v 1.49012e-08 0.4 -0.3
v 1.49012e-08 0.5 0.2
v 1.49012e-08 0.5 0.1
v 1.49012e-08 0.5 -0.2
v 1.49012e-08 0.5 -0.3
v 1.49012e-08 0.7 0.1
v 1.49012e-08 0.7 -0.2
v 1.49012e-08 0.8 0.2
v 1.49012e-08 0.8 0
v 1.49012e-08 0.8 -0.1
v 1.49012e-08 0.8 -0.3
v 1.49012e-08 0.9 0.2
v 1.49012e-08 0.9 0
v 1.49012e-08 0.9 -0.1
v 1.49012e-08 0.9 -0.3
v 1.49012e-08 1.1 0.2
v 1.49012e-08 1.1 0.1
v 1.49012e-08 1.1 0
v 1.49012e-08 1.1 -0.1
v 1.49012e-08 1.1 -0.2
v 1.49012e-08 1.1 -0.3
v 1.49012e-08 1.2 0.2
v 1.49012e-08 1.2 0.1
v 1.49012e-08 1.2 0
v 1.49012e-08 1.2 -0.1
v 1.49012e-08 1.2 -0.2
v 1.49012e-08 1.2 -0.3
v 1.49012e-08 1.3 0.7
v 1.49012e-08 1.3 0.4
v 1.49012e-08 1.3 0.2
v 1.49012e-08 1.3 0.1
v 1.49012e-08 1.3 0
v 1.49012e-08 1.3 -0.1
v 1.49012e-08 1.3 -0.2
v 1.49012e-08 1.3 -0.3
v 1.49012e-08 1.3 -0.5
v 1.49012e-08 1.3 -0.8
v 1.49012e-08 1.4 0.7
v 1.49012e-08 1.4 0.4
v 1.49012e-08 1.4 0
v 1.49012e-08 1.4 -0.1
v 1.49012e-08 1.4 -0.5
v 1.49012e-08 1.4 -0.8
v 1.49012e-08 1.5 0
v 1.49012e-08 1.5 -0.1
v 0.1 0.1 0.2
v 0.1 0.1 0.1
v 0.1 0.1 -0.2
v 0.1 0.1 -0.3
v 0.1 0.2 0.2
v 0.1 0.2 0.1
v 0.1 0.2 -0.2
v 0.1 0.2 -0.3
v 0.1 0.4 0.2
v 0.1 0.4 0.1
v 0.1 0.4 -0.2
v 0.1 0.4 -0.3
v 0.1 0.5 0.2
v 0.1 0.5 0.1
v 0.1 0.5 -0.2
v 0.1 0.5 -0.3
v 0.1 0.7 0.1
v 0.1 0.7 -0.2
v 0.1 0.8 0.2
v 0.1 0.8 0
v 0.1 0.8 -0.1
v 0.1 0.8 -0.3
v 0.1 0.9 0.2
v 0.1 0.9 0
v 0.1 0.9 -0.1
v 0.1 0.9 -0.3
v 0.1 1.1 0.2
v 0.1 1.1 0.1
v 0.1 1.1 0
v 0.1 1.1 -0.1
v 0.1 1.1 -0.2
v 0.1 1.1 -0.3
v 0.1 1.2 0.2
v 0.1 1.2 0.1
v 0.1 1.2 0
v 0.1 1.2 -0.1
v 0.1 1.2 -0.2
v 0.1 1.2 -0.3
v 0.1 1.3 0.7
v 0.1 1.3 0.4
v 0.1 1.3 0.2
v 0.1 1.3 0.1
v 0.1 1.3 0
v 0.1 1.3 -0.1
v 0.1 1.3 -0.2
v 0.1 1.3 -0.3
v 0.1 1.3 -0.5
v 0.1 1.3 -0.8
v 0.1 1.4 0.7
v 0.1 1.4 0.4
v 0.1 1.4 0
v 0.1 1.4 -0.1
v 0.1 1.4 -0.5
v 0.1 1.4 -0.8
v 0.1 1.5 0
v 0.1 1.5 -0.1
v 0.2 0 0.2
v 0.2 0 0.1
v 0.2 0 -0.2
v 0.2 0 -0.3
v 0.2 0.1 0.2
v 0.2 0.1 0.1
v 0.2 0.1 -0.2
v 0.2 0.1 -0.3
v 0.2 1.5 0.1
v 0.2 1.5 -0.2
v 0.2 1.6 0.1
v 0.2 1.6 -0.2
v 0.2 1.7 0.1
v 0.2 1.7 0
v 0.2 1.7 -0.1
v 0.2 1.7 -0.2
v 0.2 1.8 0.1
v 0.2 1.8 0
v 0.2 1.8 -0.1
v 0.2 1.8 -0.2
v 0.2 1.9 0.1
v 0.2 1.9 -0.2
v 1.49012e-08 1.3 0.7
v 1.49012e-08 1.4 0.7
v 0.1 1.3 0.7
v 0.1 1.4 0.7
v 1.49012e-08 0 0.2
v 1.49012e-08 0.2 0.2
v 1.49012e-08 0.4 0.2
v 1.49012e-08 0.5 0.2
v 1.49012e-08 0.8 0.2
v 1.49012e-08 0.9 0.2
v 1.49012e-08 1.1 0.2
v 1.49012e-08 1.2 0.2
v 1.49012e-08 1.3 0.2
v 0.1 0.1 0.2
v 0.1 0.2 0.2
v 0.1 0.4 0.2
v 0.1 0.5 0.2
v 0.1 0.8 0.2
v 0.1 0.9 0.2
v 0.1 1.1 0.2
v 0.1 1.2 0.2
v 0.1 1.3 0.2
v 0.2 0 0.2
v 0.2 0.1 0.2
v -0.1 1.5 0.1
v -0.1 1.9 0.1
v 1.49012e-08 1.6 0.1
v 1.49012e-08 1.8 0.1
v 0.1 1.7 0.1
v 0.1 1.8 0.1
v 0.2 1.5 0.1
v 0.2 1.6 0.1
v 0.2 1.7 0.1
v 0.2 1.8 0.1
v 0.2 1.9 0.1
v 1.49012e-08 1.4 0
v 1.49012e-08 1.5 0
v 0.1 1.4 0
v 0.1 1.5 0
v 1.49012e-08 0 -0.2
v 1.49012e-08 0.2 -0.2
v 1.49012e-08 0.4 -0.2
v 1.49012e-08 0.5 -0.2
v 1.49012e-08 0.7 -0.2
v 0.1 0.1 -0.2
v 0.1 0.2 -0.2
v 0.1 0.4 -0.2
v 0.1 0.5 -0.2
v 0.1 0.7 -0.2
v 0.2 0 -0.2
v 0.2 0.1 -0.2
v 1.49012e-08 0 0.1
v 1.49012e-08 0.2 0.1
v 1.49012e-08 0.4 0.1
v 1.49012e-08 0.5 0.1
v 1.49012e-08 0.7 0.1
v 0.1 0.1 0.1
v 0.1 0.2 0.1
v 0.1 0.4 0.1
v 0.1 0.5 0.1
v 0.1 0.7 0.1
v 0.2 0 0.1
v 0.2 0.1 0.1
v 1.49012e-08 1.4 -0.1
v 1.49012e-08 1.5 -0.1
v 0.1 1.4 -0.1
v 0.1 1.5 -0.1
v -0.1 1.5 -0.2
v -0.1 1.9 -0.2
v 1.49012e-08 1.6 -0.2
v 1.49012e-08 1.8 -0.2
v 0.1 1.7 -0.2
v 0.1 1.8 -0.2
v 0.2 1.5 -0.2
v 0.2 1.6 -0.2
v 0.2 1.7 -0.2
v 0.2 1.8 -0.2
v 0.2 1.9 -0.2
v 1.49012e-08 0 -0.3
v 1.49012e-08 0.2 -0.3
v 1.49012e-08 0.4 -0.3
v 1.49012e-08 0.5 -0.3
v 1.49012e-08 0.8 -0.3
v 1.49012e-08 0.9 -0.3
v 1.49012e-08 1.1 -0.3
v 1.49012e-08 1.2 -0.3
v 1.49012e-08 1.3 -0.3
v 0.1 0.1 -0.3
v 0.1 0.2 -0.3
v 0.1 0.4 -0.3
v 0.1 0.5 -0.3
v 0.1 0.8 -0.3
v 0.1 0.9 -0.3
v 0.1 1.1 -0.3
v 0.1 1.2 -0.3
v 0.1 1.3 -0.3
v 0.2 0 -0.3
v 0.2 0.1 -0.3
v 1.49012e-08 1.3 -0.8
v 1.49012e-08 1.4 -0.8
v 0.1 1.3 -0.8
v 0.1 1.4 -0.8
v 1.49012e-08 0 0.2
v 0.2 0 0.2
v 1.49012e-08 0 0.1
v 0.2 0 0.1
v 1.49012e-08 0 -0.2
v 0.2 0 -0.2
v 1.49012e-08 0 -0.3
v 0.2 0 -0.3
v 1.49012e-08 0.7 0.1
v 0.1 0.7 0.1
v 1.49012e-08 0.7 -0.2
v 0.1 0.7 -0.2
v 1.49012e-08 1.3 0.7
v 0.1 1.3 0.7
v 1.49012e-08 1.3 0.4
v 0.1 1.3 0.4
v 1.49012e-08 1.3 0.2
v 0.1 1.3 0.2
v 1.49012e-08 1.3 -0.3
v 0.1 1.3 -0.3
v 1.49012e-08 1.3 -0.5
v 0.1 1.3 -0.5
v 1.49012e-08 1.3 -0.8
v 0.1 1.3 -0.8
v -0.1 1.5 0.1
v 0.2 1.5 0.1
v 1.49012e-08 1.5 0
v 0.1 1.5 0
v 1.49012e-08 1.5 -0.1
v 0.1 1.5 -0.1
v -0.1 1.5 -0.2
v 0.2 1.5 -0.2
v 0.1 0.1 0.2
v 0.2 0.1 0.2
v 0.1 0.1 0.1
v 0.2 0.1 0.1
v 0.1 0.1 -0.2
v 0.2 0.1 -0.2
v 0.1 0.1 -0.3
v 0.2 0.1 -0.3
v 1.49012e-08 1.4 0.7
v 0.1 1.4 0.7
v 1.49012e-08 1.4 0.4
v 0.1 1.4 0.4
v 1.49012e-08 1.4 0
v 0.1 1.4 0
v 1.49012e-08 1.4 -0.1
v 0.1 1.4 -0.1
v 1.49012e-08 1.4 -0.5
v 0.1 1.4 -0.5
v 1.49012e-08 1.4 -0.8
v 0.1 1.4 -0.8
v -0.1 1.9 0.1
v 0.2 1.9 0.1
v -0.1 1.9 -0.2
v 0.2 1.9 -0.2

# faces
f 3/2/1 2/2/1 1/2/1
f 4/2/1 2/2/1 3/2/1
f 9/5/1 6/5/1 5/5/1
f 10/5/1 6/5/1 9/5/1
f 11/5/1 8/5/1 7/5/1
f 12/5/1 8/5/1 11/5/1
f 13/8/1 10/8/1 9/8/1
f 14/8/1 10/8/1 13/8/1
f 15/8/1 12/8/1 11/8/1
f 16/8/1 12/8/1 15/8/1
f 17/7/1 14/7/1 13/7/1
f 18/7/1 14/7/1 17/7/1
f 19/7/1 16/7/1 15/7/1
f 20/7/1 16/7/1 19/7/1
f 21/8/1 18/8/1 17/8/1
f 22/8/1 20/8/1 19/8/1
f 23/8/1 21/8/1 17/8/1
f 23/8/1 22/8/1 21/8/1
f 24/8/1 22/8/1 23/8/1
f 25/8/1 22/8/1 24/8/1
f 26/8/1 20/8/1 22/8/1
f 26/8/1 22/8/1 25/8/1
f 27/5/1 24/5/1 23/5/1
f 28/4/1 25/4/1 24/4/1
f 28/5/1 24/5/1 27/5/1
f 29/5/1 26/5/1 25/5/1
f 29/4/1 25/4/1 28/4/1
f 30/5/1 26/5/1 29/5/1
f 31/9/1 28/9/1 27/9/1
f 31/9/1 29/9/1 28/9/1
f 31/9/1 30/9/1 29/9/1
f 32/9/1 30/9/1 31/9/1
f 33/9/1 30/9/1 32/9/1
f 34/9/1 30/9/1 33/9/1
f 35/9/1 30/9/1 34/9/1
f 36/9/1 30/9/1 35/9/1
f 37/3/1 32/3/1 31/3/1
f 38/9/1 33/9/1 32/9/1
f 38/3/1 32/3/1 37/3/1
f 39/3/1 34/3/1 33/3/1
f 39/9/1 33/9/1 38/9/1
f 40/9/1 35/9/1 34/9/1
f 40/3/1 34/3/1 39/3/1
f 41/3/1 36/3/1 35/3/1
f 41/9/1 35/9/1 40/9/1
f 42/3/1 36/3/1 41/3/1
f 45/9/1 38/9/1 37/9/1
f 46/3/1 39/3/1 38/3/1
f 46/9/1 38/9/1 45/9/1
f 47/9/1 40/9/1 39/9/1
f 47/3/1 39/3/1 46/3/1
f 48/3/1 41/3/1 40/3/1
f 48/9/1 40/9/1 47/9/1
f 49/9/1 42/9/1 41/9/1
f 49/3/1 41/3/1 48/3/1
f 50/9/1 42/9/1 49/9/1
f 53/1/1 44/1/1 43/1/1
f 54/9/1 50/9/1 49/9/1
f 54/1/1 44/1/1 53/1/1
f 54/9/1 49/9/1 48/9/1
f 54/9/1 51/9/1 50/9/1
f 54/9/1 45/9/1 44/9/1
f 54/9/1 48/9/1 47/9/1
f 54/9/1 47/9/1 46/9/1
f 54/9/1 46/9/1 45/9/1
f 55/9/1 51/9/1 54/9/1
f 56/9/1 51/9/1 55/9/1
f 57/1/1 52/1/1 51/1/1
f 57/9/1 51/9/1 56/9/1
f 58/1/1 52/1/1 57/1/1
f 59/1/1 56/1/1 55/1/1
f 60/1/1 56/1/1 59/1/1
f 61/5/2 62/5/2 65/5/2
f 65/5/2 62/5/2 66/5/2
f 63/5/2 64/5/2 67/5/2
f 67/5/2 64/5/2 68/5/2
f 65/8/2 66/8/2 69/8/2
f 69/8/2 66/8/2 70/8/2
f 67/8/2 68/8/2 71/8/2
f 71/8/2 68/8/2 72/8/2
f 69/7/2 70/7/2 73/7/2
f 73/7/2 70/7/2 74/7/2
f 71/7/2 72/7/2 75/7/2
f 75/7/2 72/7/2 76/7/2
f 73/8/2 74/8/2 77/8/2
f 75/8/2 76/8/2 78/8/2
f 73/8/2 77/8/2 79/8/2
f 77/8/2 78/8/2 79/8/2
f 79/8/2 78/8/2 80/8/2
f 80/8/2 78/8/2 81/8/2
f 78/8/2 76/8/2 82/8/2
f 81/8/2 78/8/2 82/8/2
f 79/5/2 80/5/2 83/5/2
f 80/4/2 81/4/2 84/4/2
f 83/5/2 80/5/2 84/5/2
f 81/5/2 82/5/2 85/5/2
f 84/4/2 81/4/2 85/4/2
f 85/5/2 82/5/2 86/5/2
f 83/9/2 84/9/2 87/9/2
f 84/9/2 85/9/2 87/9/2
f 85/9/2 86/9/2 87/9/2
f 87/9/2 86/9/2 88/9/2
f 88/9/2 86/9/2 89/9/2
f 89/9/2 86/9/2 90/9/2
f 90/9/2 86/9/2 91/9/2
f 91/9/2 86/9/2 92/9/2
f 87/3/2 88/3/2 93/3/2
f 88/9/2 89/9/2 94/9/2
f 93/3/2 88/3/2 94/3/2
f 89/3/2 90/3/2 95/3/2
f 94/9/2 89/9/2 95/9/2
f 90/9/2 91/9/2 96/9/2
f 95/3/2 90/3/2 96/3/2
f 91/3/2 92/3/2 97/3/2
f 96/9/2 91/9/2 97/9/2
f 97/3/2 92/3/2 98/3/2
f 93/9/2 94/9/2 101/9/2
f 94/3/2 95/3/2 102/3/2
f 101/9/2 94/9/2 102/9/2
f 95/9/2 96/9/2 103/9/2
f 102/3/2 95/3/2 103/3/2
f 96/3/2 97/3/2 104/3/2
f 103/9/2 96/9/2 104/9/2
f 97/9/2 98/9/2 105/9/2
f 104/3/2 97/3/2 105/3/2
f 105/9/2 98/9/2 106/9/2
f 99/1/2 100/1/2 109/1/2
f 105/9/2 106/9/2 110/9/2
f 109/1/2 100/1/2 110/1/2
f 104/9/2 105/9/2 110/9/2
f 106/9/2 107/9/2 110/9/2
f 100/9/2 101/9/2 110/9/2
f 103/9/2 104/9/2 110/9/2
f 102/9/2 103/9/2 110/9/2
f 101/9/2 102/9/2 110/9/2
f 110/9/2 107/9/2 111/9/2
f 111/9/2 107/9/2 112/9/2
f 107/1/2 108/1/2 113/1/2
f 112/9/2 107/9/2 113/9/2
f 113/1/2 108/1/2 114/1/2
f 111/1/2 112/1/2 115/1/2
f 115/1/2 112/1/2 116/1/2
f 117/5/2 118/5/2 121/5/2
f 121/5/2 118/5/2 122/5/2
f 119/5/2 120/5/2 123/5/2
f 123/5/2 120/5/2 124/5/2
f 125/2/2 126/2/2 127/2/2
f 127/2/2 126/2/2 128/2/2
f 127/1/2 128/1/2 129/1/2
f 129/1/2 128/1/2 130/1/2
f 130/1/2 128/1/2 131/1/2
f 131/1/2 128/1/2 132/1/2
f 129/6/2 130/6/2 133/6/2
f 130/1/2 131/1/2 134/1/2
f 133/6/2 130/6/2 134/6/2
f 131/6/2 132/6/2 135/6/2
f 134/1/2 131/1/2 135/1/2
f 135/6/2 132/6/2 136/6/2
f 133/2/2 134/2/2 137/2/2
f 134/2/2 135/2/2 137/2/2
f 135/2/2 136/2/2 137/2/2
f 137/2/2 136/2/2 138/2/2
f 141/1/3 140/1/3 139/1/3
f 142/1/3 140/1/3 141/1/3
f 152/5/3 144/5/3 143/5/3
f 153/8/3 145/8/3 144/8/3
f 153/5/3 144/5/3 152/5/3
f 154/7/3 146/7/3 145/7/3
f 154/8/3 145/8/3 153/8/3
f 155/8/3 147/8/3 146/8/3
f 155/7/3 146/7/3 154/7/3
f 156/5/3 148/5/3 147/5/3
f 156/8/3 147/8/3 155/8/3
f 157/9/3 149/9/3 148/9/3
f 157/5/3 148/5/3 156/5/3
f 158/3/3 150/3/3 149/3/3
f 158/9/3 149/9/3 157/9/3
f 159/9/3 151/9/3 150/9/3
f 159/3/3 150/3/3 158/3/3
f 160/9/3 151/9/3 159/9/3
f 161/5/3 152/5/3 143/5/3
f 162/5/3 152/5/3 161/5/3
f 165/2/3 164/2/3 163/2/3
f 166/2/3 164/2/3 165/2/3
f 167/1/3 166/1/3 165/1/3
f 168/2/3 164/2/3 166/2/3
f 168/1/3 166/1/3 167/1/3
f 169/2/3 165/2/3 163/2/3
f 170/1/3 167/1/3 165/1/3
f 170/2/3 165/2/3 169/2/3
f 171/6/3 168/6/3 167/6/3
f 171/1/3 167/1/3 170/1/3
f 172/2/3 164/2/3 168/2/3
f 172/6/3 168/6/3 171/6/3
f 173/2/3 164/2/3 172/2/3
f 176/1/3 175/1/3 174/1/3
f 177/1/3 175/1/3 176/1/3
f 183/5/3 179/5/3 178/5/3
f 184/8/3 180/8/3 179/8/3
f 184/5/3 179/5/3 183/5/3
f 185/7/3 181/7/3 180/7/3
f 185/8/3 180/8/3 184/8/3
f 186/8/3 182/8/3 181/8/3
f 186/7/3 181/7/3 185/7/3
f 187/8/3 182/8/3 186/8/3
f 188/5/3 183/5/3 178/5/3
f 189/5/3 183/5/3 188/5/3
f 190/5/4 191/5/4 195/5/4
f 191/8/4 192/8/4 196/8/4
f 195/5/4 191/5/4 196/5/4
f 192/7/4 193/7/4 197/7/4
f 196/8/4 192/8/4 197/8/4
f 193/8/4 194/8/4 198/8/4
f 197/7/4 193/7/4 198/7/4
f 198/8/4 194/8/4 199/8/4
f 190/5/4 195/5/4 200/5/4
f 200/5/4 195/5/4 201/5/4
f 202/1/4 203/1/4 204/1/4
f 204/1/4 203/1/4 205/1/4
f 206/2/4 207/2/4 208/2/4
f 208/2/4 207/2/4 209/2/4
f 208/1/4 209/1/4 210/1/4
f 209/2/4 207/2/4 211/2/4
f 210/1/4 209/1/4 211/1/4
f 206/2/4 208/2/4 212/2/4
f 208/1/4 210/1/4 213/1/4
f 212/2/4 208/2/4 213/2/4
f 210/6/4 211/6/4 214/6/4
f 213/1/4 210/1/4 214/1/4
f 211/2/4 207/2/4 215/2/4
f 214/6/4 211/6/4 215/6/4
f 215/2/4 207/2/4 216/2/4
f 217/5/4 218/5/4 226/5/4
f 218/8/4 219/8/4 227/8/4
f 226/5/4 218/5/4 227/5/4
f 219/7/4 220/7/4 228/7/4
f 227/8/4 219/8/4 228/8/4
f 220/8/4 221/8/4 229/8/4
f 228/7/4 220/7/4 229/7/4
f 221/5/4 222/5/4 230/5/4
f 229/8/4 221/8/4 230/8/4
f 222/9/4 223/9/4 231/9/4
f 230/5/4 222/5/4 231/5/4
f 223/3/4 224/3/4 232/3/4
f 231/9/4 223/9/4 232/9/4
f 224/9/4 225/9/4 233/9/4
f 232/3/4 224/3/4 233/3/4
f 233/9/4 225/9/4 234/9/4
f 217/5/4 226/5/4 235/5/4
f 235/5/4 226/5/4 236/5/4
f 237/1/4 238/1/4 239/1/4
f 239/1/4 238/1/4 240/1/4
f 243/5/5 242/5/5 241/5/5
f 244/5/5 242/5/5 243/5/5
f 247/5/5 246/5/5 245/5/5
f 248/5/5 246/5/5 247/5/5
f 251/8/5 250/8/5 249/8/5
f 252/8/5 250/8/5 251/8/5
f 255/1/5 254/1/5 253/1/5
f 256/1/5 254/1/5 255/1/5
f 257/9/5 256/9/5 255/9/5
f 258/9/5 256/9/5 257/9/5
f 261/9/5 260/9/5 259/9/5
f 262/9/5 260/9/5 261/9/5
f 263/1/5 262/1/5 261/1/5
f 264/1/5 262/1/5 263/1/5
f 267/2/5 266/2/5 265/2/5
f 268/2/5 266/2/5 267/2/5
f 269/2/5 267/2/5 265/2/5
f 270/2/5 266/2/5 268/2/5
f 271/2/5 269/2/5 265/2/5
f 271/2/5 270/2/5 269/2/5
f 272/2/5 266/2/5 270/2/5
f 272/2/5 270/2/5 271/2/5
f 273/5/6 274/5/6 275/5/6
f 275/5/6 274/5/6 276/5/6
f 277/5/6 278/5/6 279/5/6
f 279/5/6 278/5/6 280/5/6
f 281/1/6 282/1/6 283/1/6
f 283/1/6 282/1/6 284/1/6
f 283/9/6 284/9/6 285/9/6
f 285/9/6 284/9/6 286/9/6
f 287/9/6 288/9/6 289/9/6
f 289/9/6 288/9/6 290/9/6
f 289/1/6 290/1/6 291/1/6
f 291/1/6 290/1/6 292/1/6
f 293/2/6 294/2/6 295/2/6
f 295/2/6 294/2/6 296/2/6
